<svg xmlns="http://www.w3.org/2000/svg" xmlns:xlink="http://www.w3.org/1999/xlink" width="500" zoomAndPan="magnify" viewBox="0 0 375 225" height="300" preserveAspectRatio="xMidYMid meet" version="1.2"><defs><clipPath id="e0dae134b0"><path d="M 43.308594 8.328125 L 375 8.328125 L 375 63.363281 L 43.308594 63.363281 Z M 43.308594 8.328125 "/></clipPath><clipPath id="4c7ad85c42"><path d="M 49.976562 8.328125 L 395.609375 8.328125 C 399.289062 8.328125 402.273438 11.3125 402.273438 14.992188 L 402.273438 56.695312 C 402.273438 60.378906 399.289062 63.363281 395.609375 63.363281 L 49.976562 63.363281 C 46.292969 63.363281 43.308594 60.378906 43.308594 56.695312 L 43.308594 14.992188 C 43.308594 11.3125 46.292969 8.328125 49.976562 8.328125 Z M 49.976562 8.328125 "/></clipPath><clipPath id="ab585a3b1e"><path d="M 0.308594 0.328125 L 332 0.328125 L 332 55.363281 L 0.308594 55.363281 Z M 0.308594 0.328125 "/></clipPath><clipPath id="5c457c42bd"><path d="M 6.976562 0.328125 L 352.609375 0.328125 C 356.289062 0.328125 359.273438 3.3125 359.273438 6.992188 L 359.273438 48.695312 C 359.273438 52.378906 356.289062 55.363281 352.609375 55.363281 L 6.976562 55.363281 C 3.292969 55.363281 0.308594 52.378906 0.308594 48.695312 L 0.308594 6.992188 C 0.308594 3.3125 3.292969 0.328125 6.976562 0.328125 Z M 6.976562 0.328125 "/></clipPath><clipPath id="e5e82c2a9a"><rect x="0" width="332" y="0" height="56"/></clipPath><clipPath id="de6819665d"><path d="M 56.449219 18.601562 L 93.199219 18.601562 L 93.199219 55.351562 L 56.449219 55.351562 Z M 56.449219 18.601562 "/></clipPath><clipPath id="6aebc68a9d"><path d="M 80 29 L 89.199219 29 L 89.199219 45 L 80 45 Z M 80 29 "/></clipPath><clipPath id="dedbc10a5d"><path d="M 70 26.535156 L 80 26.535156 L 80 47.535156 L 70 47.535156 Z M 70 26.535156 "/></clipPath><clipPath id="87b5e2c37c"><path d="M 43.308594 161.636719 L 375 161.636719 L 375 216.671875 L 43.308594 216.671875 Z M 43.308594 161.636719 "/></clipPath><clipPath id="147b23ab9e"><path d="M 49.976562 161.636719 L 395.609375 161.636719 C 399.289062 161.636719 402.273438 164.621094 402.273438 168.304688 L 402.273438 210.007812 C 402.273438 213.6875 399.289062 216.671875 395.609375 216.671875 L 49.976562 216.671875 C 46.292969 216.671875 43.308594 213.6875 43.308594 210.007812 L 43.308594 168.304688 C 43.308594 164.621094 46.292969 161.636719 49.976562 161.636719 Z M 49.976562 161.636719 "/></clipPath><clipPath id="2072b04874"><path d="M 0.308594 0.636719 L 332 0.636719 L 332 55.671875 L 0.308594 55.671875 Z M 0.308594 0.636719 "/></clipPath><clipPath id="0b76b94f97"><path d="M 6.976562 0.636719 L 352.609375 0.636719 C 356.289062 0.636719 359.273438 3.621094 359.273438 7.304688 L 359.273438 49.007812 C 359.273438 52.6875 356.289062 55.671875 352.609375 55.671875 L 6.976562 55.671875 C 3.292969 55.671875 0.308594 52.6875 0.308594 49.007812 L 0.308594 7.304688 C 0.308594 3.621094 3.292969 0.636719 6.976562 0.636719 Z M 6.976562 0.636719 "/></clipPath><clipPath id="d43893359a"><rect x="0" width="332" y="0" height="56"/></clipPath><clipPath id="58c40d26e6"><path d="M 56.449219 171.910156 L 93.199219 171.910156 L 93.199219 208.660156 L 56.449219 208.660156 Z M 56.449219 171.910156 "/></clipPath><clipPath id="c656234850"><path d="M 14 82.03125 L 375 82.03125 L 375 142.96875 L 14 142.96875 Z M 14 82.03125 "/></clipPath><clipPath id="499d541da8"><path d="M 20.667969 82.03125 L 404.804688 82.03125 C 408.488281 82.03125 411.472656 85.015625 411.472656 88.695312 L 411.472656 136.304688 C 411.472656 139.984375 408.488281 142.96875 404.804688 142.96875 L 20.667969 142.96875 C 16.988281 142.96875 14 139.984375 14 136.304688 L 14 88.695312 C 14 85.015625 16.988281 82.03125 20.667969 82.03125 Z M 20.667969 82.03125 "/></clipPath><clipPath id="8e7441a458"><path d="M 0 0.03125 L 361 0.03125 L 361 60.96875 L 0 60.96875 Z M 0 0.03125 "/></clipPath><clipPath id="5b55f8b313"><path d="M 6.667969 0.03125 L 390.804688 0.03125 C 394.488281 0.03125 397.472656 3.015625 397.472656 6.695312 L 397.472656 54.304688 C 397.472656 57.984375 394.488281 60.96875 390.804688 60.96875 L 6.667969 60.96875 C 2.988281 60.96875 0 57.984375 0 54.304688 L 0 6.695312 C 0 3.015625 2.988281 0.03125 6.667969 0.03125 Z M 6.667969 0.03125 "/></clipPath><clipPath id="ee700b64ee"><rect x="0" width="361" y="0" height="61"/></clipPath><clipPath id="87d8c0b3cf"><path d="M 28.550781 93.40625 L 69.050781 93.40625 L 69.050781 133.90625 L 28.550781 133.90625 Z M 28.550781 93.40625 "/></clipPath><clipPath id="0d30f72dd6"><path d="M 36.480469 99.5 L 61.230469 99.5 L 61.230469 125.75 L 36.480469 125.75 Z M 36.480469 99.5 "/></clipPath><clipPath id="c297e4e794"><path d="M 64 177.367188 L 86 177.367188 L 86 199.867188 L 64 199.867188 Z M 64 177.367188 "/></clipPath><clipPath id="eade7f21d0"><path d="M 60.679688 186 L 64 186 L 64 195 L 60.679688 195 Z M 60.679688 186 "/></clipPath><clipPath id="1fe4d697d8"><path d="M 86 186 L 88.429688 186 L 88.429688 195 L 86 195 Z M 86 186 "/></clipPath><clipPath id="076f82ad89"><rect x="0" width="158" y="0" height="23"/></clipPath><clipPath id="522c582f2d"><rect x="0" width="209" y="0" height="22"/></clipPath><clipPath id="dc18a480b3"><rect x="0" width="222" y="0" height="22"/></clipPath><clipPath id="4880711ee0"><rect x="0" width="171" y="0" height="24"/></clipPath><clipPath id="a5c7818664"><rect x="0" width="230" y="0" height="25"/></clipPath></defs><g id="89e097bbca"><g clip-rule="nonzero" clip-path="url(#e0dae134b0)"><g clip-rule="nonzero" clip-path="url(#4c7ad85c42)"><g transform="matrix(1,0,0,1,43,8)"><g clip-path="url(#e5e82c2a9a)"><g clip-rule="nonzero" clip-path="url(#ab585a3b1e)"><g clip-rule="nonzero" clip-path="url(#5c457c42bd)"><path style=" stroke:none;fill-rule:nonzero;fill:#1f201d;fill-opacity:1;" d="M 0.308594 0.328125 L 359.335938 0.328125 L 359.335938 55.363281 L 0.308594 55.363281 Z M 0.308594 0.328125 "/></g></g></g></g></g></g><g clip-rule="nonzero" clip-path="url(#de6819665d)"><path style=" stroke:none;fill-rule:nonzero;fill:#9d41f1;fill-opacity:1;" d="M 74.730469 55.164062 C 64.675781 55.164062 56.449219 46.9375 56.449219 36.882812 C 56.449219 26.828125 64.675781 18.601562 74.730469 18.601562 C 84.785156 18.601562 93.011719 26.828125 93.011719 36.882812 C 93.011719 46.9375 84.785156 55.164062 74.730469 55.164062 Z M 74.730469 55.164062 "/></g><path style=" stroke:none;fill-rule:nonzero;fill:#ffffff;fill-opacity:1;" d="M 67.445312 44.304688 C 67.007812 44.304688 66.714844 44.160156 66.425781 43.871094 L 60.597656 38.042969 C 60.015625 37.460938 60.015625 36.585938 60.597656 36.003906 L 66.425781 30.175781 C 67.007812 29.59375 67.882812 29.59375 68.464844 30.175781 C 69.046875 30.761719 69.046875 31.632812 68.464844 32.214844 L 63.65625 37.023438 L 68.464844 41.828125 C 69.046875 42.414062 69.046875 43.285156 68.464844 43.871094 C 68.171875 44.160156 67.882812 44.304688 67.445312 44.304688 Z M 67.445312 44.304688 "/><g clip-rule="nonzero" clip-path="url(#6aebc68a9d)"><path style=" stroke:none;fill-rule:nonzero;fill:#ffffff;fill-opacity:1;" d="M 82.011719 44.304688 C 81.574219 44.304688 81.28125 44.160156 80.992188 43.871094 C 80.410156 43.285156 80.410156 42.414062 80.992188 41.828125 L 85.796875 37.023438 L 80.992188 32.214844 C 80.410156 31.632812 80.410156 30.761719 80.992188 30.175781 C 81.574219 29.59375 82.449219 29.59375 83.03125 30.175781 L 88.855469 36.003906 C 89.4375 36.585938 89.4375 37.460938 88.855469 38.042969 L 83.03125 43.871094 C 82.738281 44.160156 82.449219 44.304688 82.011719 44.304688 Z M 82.011719 44.304688 "/></g><g clip-rule="nonzero" clip-path="url(#dedbc10a5d)"><path style=" stroke:none;fill-rule:nonzero;fill:#ffffff;fill-opacity:1;" d="M 71.816406 47.21875 C 71.667969 47.21875 71.523438 47.21875 71.378906 47.074219 C 70.648438 46.78125 70.210938 46.054688 70.503906 45.179688 L 76.328125 27.699219 C 76.621094 26.972656 77.347656 26.535156 78.222656 26.828125 C 78.953125 27.117188 79.390625 27.847656 79.097656 28.71875 L 73.269531 46.199219 C 72.980469 46.78125 72.398438 47.21875 71.816406 47.21875 Z M 71.816406 47.21875 "/></g><g clip-rule="nonzero" clip-path="url(#87b5e2c37c)"><g clip-rule="nonzero" clip-path="url(#147b23ab9e)"><g transform="matrix(1,0,0,1,43,161)"><g clip-path="url(#d43893359a)"><g clip-rule="nonzero" clip-path="url(#2072b04874)"><g clip-rule="nonzero" clip-path="url(#0b76b94f97)"><path style=" stroke:none;fill-rule:nonzero;fill:#1f201d;fill-opacity:1;" d="M 0.308594 0.636719 L 359.335938 0.636719 L 359.335938 55.671875 L 0.308594 55.671875 Z M 0.308594 0.636719 "/></g></g></g></g></g></g><g clip-rule="nonzero" clip-path="url(#58c40d26e6)"><path style=" stroke:none;fill-rule:nonzero;fill:#e18800;fill-opacity:1;" d="M 74.730469 208.472656 C 64.675781 208.472656 56.449219 200.246094 56.449219 190.191406 C 56.449219 180.136719 64.675781 171.910156 74.730469 171.910156 C 84.785156 171.910156 93.011719 180.136719 93.011719 190.191406 C 93.011719 200.246094 84.785156 208.472656 74.730469 208.472656 Z M 74.730469 208.472656 "/></g><g clip-rule="nonzero" clip-path="url(#c656234850)"><g clip-rule="nonzero" clip-path="url(#499d541da8)"><g transform="matrix(1,0,0,1,14,82)"><g clip-path="url(#ee700b64ee)"><g clip-rule="nonzero" clip-path="url(#8e7441a458)"><g clip-rule="nonzero" clip-path="url(#5b55f8b313)"><path style=" stroke:none;fill-rule:nonzero;fill:#1f201d;fill-opacity:1;" d="M 0 0.03125 L 397.539062 0.03125 L 397.539062 60.96875 L 0 60.96875 Z M 0 0.03125 "/></g></g></g></g></g></g><g clip-rule="nonzero" clip-path="url(#87d8c0b3cf)"><path style=" stroke:none;fill-rule:nonzero;fill:#499b30;fill-opacity:1;" d="M 48.796875 133.894531 C 37.660156 133.894531 28.550781 124.785156 28.550781 113.648438 C 28.550781 102.515625 37.660156 93.40625 48.796875 93.40625 C 59.929688 93.40625 69.039062 102.515625 69.039062 113.648438 C 69.039062 124.785156 59.929688 133.894531 48.796875 133.894531 Z M 48.796875 133.894531 "/></g><g clip-rule="nonzero" clip-path="url(#0d30f72dd6)"><path style=" stroke:none;fill-rule:nonzero;fill:#ffffff;fill-opacity:1;" d="M 61.101562 108.394531 L 61.101562 112.496094 C 61.101562 115.894531 55.589844 118.652344 48.792969 118.652344 C 41.996094 118.652344 36.480469 115.894531 36.480469 112.496094 L 36.480469 108.394531 C 36.480469 111.792969 41.996094 114.546875 48.792969 114.546875 C 55.589844 114.546875 61.101562 111.792969 61.101562 108.394531 Z M 36.480469 115.234375 C 36.480469 118.632812 41.996094 121.386719 48.792969 121.386719 C 55.589844 121.386719 61.101562 118.632812 61.101562 115.234375 L 61.101562 119.335938 C 61.101562 122.734375 55.589844 125.492188 48.792969 125.492188 C 41.996094 125.492188 36.480469 122.734375 36.480469 119.335938 Z M 48.792969 111.8125 C 41.996094 111.8125 36.480469 109.058594 36.480469 105.65625 C 36.480469 102.257812 41.996094 99.503906 48.792969 99.503906 C 55.589844 99.503906 61.101562 102.257812 61.101562 105.65625 C 61.101562 109.058594 55.589844 111.8125 48.792969 111.8125 Z M 48.792969 111.8125 "/></g><g clip-rule="nonzero" clip-path="url(#c297e4e794)"><path style=" stroke:none;fill-rule:evenodd;fill:#ffffff;fill-opacity:1;" d="M 80.664062 199.738281 L 68.78125 199.738281 C 66.164062 199.738281 64.039062 197.613281 64.039062 195.011719 L 64.039062 187.308594 C 64.039062 184.691406 66.164062 182.566406 68.78125 182.566406 L 74.210938 182.566406 L 74.230469 180.757812 C 73.519531 180.542969 72.996094 179.886719 72.996094 179.09375 C 72.996094 178.140625 73.785156 177.367188 74.738281 177.367188 C 75.695312 177.367188 76.484375 178.140625 76.484375 179.09375 C 76.484375 179.886719 75.941406 180.558594 75.214844 180.773438 L 75.199219 182.566406 L 80.664062 182.566406 C 83.265625 182.566406 85.390625 184.691406 85.390625 187.308594 L 85.390625 195.03125 C 85.390625 197.628906 83.265625 199.738281 80.664062 199.738281 Z M 70.261719 192.265625 C 68.863281 192.265625 67.757812 191.160156 67.757812 189.777344 C 67.757812 188.378906 68.863281 187.277344 70.261719 187.277344 C 71.660156 187.277344 72.746094 188.378906 72.746094 189.777344 C 72.746094 191.160156 71.660156 192.265625 70.261719 192.265625 Z M 70.261719 188.265625 C 69.40625 188.265625 68.746094 188.921875 68.746094 189.777344 C 68.746094 190.617188 69.40625 191.277344 70.261719 191.277344 C 71.101562 191.277344 71.777344 190.617188 71.777344 189.777344 C 71.777344 188.921875 71.101562 188.265625 70.261719 188.265625 Z M 79.199219 192.164062 C 77.800781 192.164062 76.683594 191.046875 76.683594 189.664062 C 76.683594 188.28125 77.800781 187.160156 79.199219 187.160156 C 80.566406 187.160156 81.6875 188.28125 81.6875 189.664062 C 81.6875 191.046875 80.566406 192.164062 79.199219 192.164062 Z M 79.199219 188.148438 C 78.34375 188.148438 77.667969 188.839844 77.667969 189.664062 C 77.667969 190.503906 78.34375 191.195312 79.199219 191.195312 C 80.039062 191.195312 80.699219 190.503906 80.699219 189.664062 C 80.699219 188.808594 80.023438 188.148438 79.199219 188.148438 Z M 74.542969 195.160156 C 73.605469 195.160156 72.78125 194.71875 72.320312 194.320312 C 72.105469 194.140625 72.089844 193.8125 72.269531 193.628906 C 72.453125 193.433594 72.746094 193.398438 72.960938 193.597656 C 73.109375 193.730469 74.542969 194.863281 75.90625 193.613281 C 76.105469 193.433594 76.402344 193.433594 76.617188 193.628906 C 76.796875 193.84375 76.796875 194.140625 76.597656 194.339844 C 75.90625 194.929688 75.199219 195.160156 74.542969 195.160156 Z M 74.542969 195.160156 "/></g><g clip-rule="nonzero" clip-path="url(#eade7f21d0)"><path style=" stroke:none;fill-rule:evenodd;fill:#ffffff;fill-opacity:1;" d="M 63.050781 194.453125 L 62.855469 194.453125 C 61.667969 194.453125 60.679688 193.480469 60.679688 192.28125 L 60.679688 188.921875 C 60.679688 187.71875 61.667969 186.734375 62.855469 186.734375 L 63.085938 186.734375 C 63.066406 186.914062 63.050781 187.113281 63.050781 187.308594 Z M 63.050781 194.453125 "/></g><g clip-rule="nonzero" clip-path="url(#1fe4d697d8)"><path style=" stroke:none;fill-rule:evenodd;fill:#ffffff;fill-opacity:1;" d="M 86.574219 194.453125 L 86.378906 194.453125 L 86.378906 187.308594 C 86.378906 187.09375 86.359375 186.898438 86.34375 186.714844 L 86.574219 186.714844 C 87.792969 186.714844 88.78125 187.6875 88.78125 188.90625 L 88.78125 192.28125 C 88.78125 193.5 87.792969 194.453125 86.574219 194.453125 Z M 86.574219 194.453125 "/></g><g transform="matrix(1,0,0,1,102,14)"><g clip-path="url(#076f82ad89)"><g style="fill:#ffffff;fill-opacity:1;"><g transform="translate(1.171789, 16.026547)"><path style="stroke:none" d="M 8.332031 -10.441406 L 0.953125 -10.441406 L 0.953125 0 L 3.125 0 L 3.125 -4.328125 L 7.671875 -4.328125 L 7.671875 -6.261719 L 3.125 -6.261719 L 3.125 -8.507812 L 8.332031 -8.507812 Z M 8.332031 -10.441406 "/></g></g><g style="fill:#ffffff;fill-opacity:1;"><g transform="translate(9.573642, 16.026547)"><path style="stroke:none" d="M 4.664062 -7.773438 C 3.828125 -7.773438 3.210938 -7.332031 2.875 -6.527344 L 2.902344 -7.566406 L 0.878906 -7.566406 L 0.878906 0 L 2.949219 0 L 2.949219 -3.679688 C 2.949219 -5.148438 3.5625 -5.867188 4.824219 -5.867188 C 4.972656 -5.867188 5.105469 -5.851562 5.25 -5.835938 L 5.25 -7.714844 C 5.046875 -7.757812 4.839844 -7.773438 4.664062 -7.773438 Z M 4.664062 -7.773438 "/></g></g><g style="fill:#ffffff;fill-opacity:1;"><g transform="translate(15.116231, 16.026547)"><path style="stroke:none" d="M 4.339844 0.25 C 6.613281 0.25 8.214844 -1.464844 8.214844 -3.753906 C 8.214844 -6.042969 6.613281 -7.757812 4.339844 -7.757812 C 2.066406 -7.757812 0.46875 -6.042969 0.46875 -3.753906 C 0.46875 -1.464844 2.066406 0.25 4.339844 0.25 Z M 4.339844 -1.363281 C 3.183594 -1.363281 2.464844 -2.300781 2.464844 -3.753906 C 2.464844 -5.207031 3.183594 -6.144531 4.339844 -6.144531 C 5.5 -6.144531 6.21875 -5.207031 6.21875 -3.753906 C 6.21875 -2.300781 5.5 -1.363281 4.339844 -1.363281 Z M 4.339844 -1.363281 "/></g></g><g style="fill:#ffffff;fill-opacity:1;"><g transform="translate(23.796683, 16.026547)"><path style="stroke:none" d="M 5.117188 -7.757812 C 4.152344 -7.757812 3.433594 -7.363281 2.933594 -6.542969 L 2.902344 -7.566406 L 0.878906 -7.566406 L 0.878906 0 L 2.949219 0 L 2.949219 -4.046875 C 2.949219 -5.175781 3.550781 -5.894531 4.429688 -5.894531 C 5.164062 -5.894531 5.53125 -5.398438 5.53125 -4.605469 L 5.53125 0 L 7.597656 0 L 7.597656 -5.074219 C 7.597656 -6.71875 6.6875 -7.757812 5.117188 -7.757812 Z M 5.117188 -7.757812 "/></g></g><g style="fill:#ffffff;fill-opacity:1;"><g transform="translate(32.19852, 16.026547)"><path style="stroke:none" d="M 4.722656 -6.042969 L 4.722656 -7.566406 L 3.316406 -7.523438 L 3.316406 -9.898438 L 1.246094 -9.898438 L 1.246094 -7.539062 L 0.21875 -7.566406 L 0.21875 -6.042969 L 1.246094 -6.085938 L 1.246094 -2.125 C 1.246094 -0.601562 1.847656 0 3.375 0 L 4.722656 0 L 4.722656 -1.65625 L 4.035156 -1.65625 C 3.519531 -1.65625 3.316406 -1.863281 3.316406 -2.375 L 3.316406 -6.085938 Z M 4.722656 -6.042969 "/></g></g><g style="fill:#ffffff;fill-opacity:1;"><g transform="translate(37.213237, 16.026547)"><path style="stroke:none" d="M 8.082031 -3.519531 C 8.082031 -6.175781 6.4375 -7.757812 4.195312 -7.757812 C 1.878906 -7.757812 0.46875 -6.027344 0.46875 -3.8125 C 0.46875 -1.496094 1.90625 0.25 4.414062 0.25 C 6.117188 0.25 7.378906 -0.542969 7.890625 -2.183594 L 5.835938 -2.332031 C 5.589844 -1.671875 5.089844 -1.347656 4.371094 -1.347656 C 3.34375 -1.347656 2.683594 -2.023438 2.597656 -3.167969 L 8.082031 -3.167969 Z M 4.269531 -6.246094 C 5.207031 -6.246094 5.824219 -5.632812 5.941406 -4.574219 L 2.582031 -4.574219 C 2.683594 -5.617188 3.328125 -6.246094 4.269531 -6.246094 Z M 4.269531 -6.246094 "/></g></g><g style="fill:#ffffff;fill-opacity:1;"><g transform="translate(45.761732, 16.026547)"><path style="stroke:none" d="M 5.117188 -7.757812 C 4.152344 -7.757812 3.433594 -7.363281 2.933594 -6.542969 L 2.902344 -7.566406 L 0.878906 -7.566406 L 0.878906 0 L 2.949219 0 L 2.949219 -4.046875 C 2.949219 -5.175781 3.550781 -5.894531 4.429688 -5.894531 C 5.164062 -5.894531 5.53125 -5.398438 5.53125 -4.605469 L 5.53125 0 L 7.597656 0 L 7.597656 -5.074219 C 7.597656 -6.71875 6.6875 -7.757812 5.117188 -7.757812 Z M 5.117188 -7.757812 "/></g></g><g style="fill:#ffffff;fill-opacity:1;"><g transform="translate(54.236906, 16.026547)"><path style="stroke:none" d="M 5.765625 -6.804688 C 5.25 -7.4375 4.53125 -7.757812 3.5625 -7.757812 C 1.847656 -7.757812 0.46875 -6.292969 0.46875 -3.8125 C 0.46875 -1.378906 1.820312 0.25 3.726562 0.25 C 4.664062 0.25 5.410156 -0.148438 5.925781 -0.9375 L 6 0 L 7.832031 0 L 7.832031 -10.441406 L 5.765625 -10.441406 Z M 4.164062 -1.570312 C 3.167969 -1.570312 2.464844 -2.421875 2.464844 -3.8125 C 2.464844 -5.191406 3.167969 -6.042969 4.164062 -6.042969 C 5.164062 -6.042969 5.867188 -5.175781 5.867188 -3.8125 C 5.867188 -2.449219 5.164062 -1.570312 4.164062 -1.570312 Z M 4.164062 -1.570312 "/></g></g><g style="fill:#ffffff;fill-opacity:1;"><g transform="translate(62.946683, 16.026547)"><path style="stroke:none" d=""/></g></g><g style="fill:#ffffff;fill-opacity:1;"><g transform="translate(66.612417, 16.026547)"><path style="stroke:none" d="M 4.355469 -10.441406 L 0.953125 -10.441406 L 0.953125 0 L 4.648438 0 C 8.199219 0 9.753906 -2.171875 9.753906 -5.292969 C 9.753906 -8.417969 8.273438 -10.441406 4.355469 -10.441406 Z M 3.125 -1.832031 L 3.125 -8.683594 L 4.152344 -8.683594 C 6.820312 -8.683594 7.582031 -7.480469 7.582031 -5.222656 C 7.582031 -2.949219 6.746094 -1.832031 4.445312 -1.832031 Z M 3.125 -1.832031 "/></g></g><g style="fill:#ffffff;fill-opacity:1;"><g transform="translate(76.832474, 16.026547)"><path style="stroke:none" d="M 8.082031 -3.519531 C 8.082031 -6.175781 6.4375 -7.757812 4.195312 -7.757812 C 1.878906 -7.757812 0.46875 -6.027344 0.46875 -3.8125 C 0.46875 -1.496094 1.90625 0.25 4.414062 0.25 C 6.117188 0.25 7.378906 -0.542969 7.890625 -2.183594 L 5.835938 -2.332031 C 5.589844 -1.671875 5.089844 -1.347656 4.371094 -1.347656 C 3.34375 -1.347656 2.683594 -2.023438 2.597656 -3.167969 L 8.082031 -3.167969 Z M 4.269531 -6.246094 C 5.207031 -6.246094 5.824219 -5.632812 5.941406 -4.574219 L 2.582031 -4.574219 C 2.683594 -5.617188 3.328125 -6.246094 4.269531 -6.246094 Z M 4.269531 -6.246094 "/></g></g><g style="fill:#ffffff;fill-opacity:1;"><g transform="translate(85.234296, 16.026547)"><path style="stroke:none" d="M 4.546875 -5.292969 L 3.8125 -1.996094 L 3.035156 -5.292969 L 2.40625 -7.566406 L 0.21875 -7.566406 L 2.714844 0 L 4.824219 0 L 7.320312 -7.566406 L 5.234375 -7.566406 Z M 4.546875 -5.292969 "/></g></g><g style="fill:#ffffff;fill-opacity:1;"><g transform="translate(92.624369, 16.026547)"><path style="stroke:none" d="M 8.082031 -3.519531 C 8.082031 -6.175781 6.4375 -7.757812 4.195312 -7.757812 C 1.878906 -7.757812 0.46875 -6.027344 0.46875 -3.8125 C 0.46875 -1.496094 1.90625 0.25 4.414062 0.25 C 6.117188 0.25 7.378906 -0.542969 7.890625 -2.183594 L 5.835938 -2.332031 C 5.589844 -1.671875 5.089844 -1.347656 4.371094 -1.347656 C 3.34375 -1.347656 2.683594 -2.023438 2.597656 -3.167969 L 8.082031 -3.167969 Z M 4.269531 -6.246094 C 5.207031 -6.246094 5.824219 -5.632812 5.941406 -4.574219 L 2.582031 -4.574219 C 2.683594 -5.617188 3.328125 -6.246094 4.269531 -6.246094 Z M 4.269531 -6.246094 "/></g></g><g style="fill:#ffffff;fill-opacity:1;"><g transform="translate(101.172864, 16.026547)"><path style="stroke:none" d="M 2.949219 0 L 2.949219 -10.441406 L 0.878906 -10.441406 L 0.878906 0 Z M 2.949219 0 "/></g></g><g style="fill:#ffffff;fill-opacity:1;"><g transform="translate(104.999896, 16.026547)"><path style="stroke:none" d="M 4.339844 0.25 C 6.613281 0.25 8.214844 -1.464844 8.214844 -3.753906 C 8.214844 -6.042969 6.613281 -7.757812 4.339844 -7.757812 C 2.066406 -7.757812 0.46875 -6.042969 0.46875 -3.753906 C 0.46875 -1.464844 2.066406 0.25 4.339844 0.25 Z M 4.339844 -1.363281 C 3.183594 -1.363281 2.464844 -2.300781 2.464844 -3.753906 C 2.464844 -5.207031 3.183594 -6.144531 4.339844 -6.144531 C 5.5 -6.144531 6.21875 -5.207031 6.21875 -3.753906 C 6.21875 -2.300781 5.5 -1.363281 4.339844 -1.363281 Z M 4.339844 -1.363281 "/></g></g><g style="fill:#ffffff;fill-opacity:1;"><g transform="translate(113.680347, 16.026547)"><path style="stroke:none" d="M 5.148438 -7.757812 C 4.078125 -7.757812 3.300781 -7.363281 2.785156 -6.585938 L 2.714844 -7.566406 L 0.878906 -7.566406 L 0.878906 2.992188 L 2.949219 2.992188 L 2.949219 -0.703125 C 3.445312 -0.0742188 4.152344 0.25 4.988281 0.25 C 6.894531 0.25 8.242188 -1.378906 8.242188 -3.8125 C 8.242188 -6.292969 6.863281 -7.757812 5.148438 -7.757812 Z M 4.546875 -1.570312 C 3.550781 -1.570312 2.84375 -2.449219 2.84375 -3.8125 C 2.84375 -5.175781 3.550781 -6.042969 4.546875 -6.042969 C 5.542969 -6.042969 6.246094 -5.191406 6.246094 -3.8125 C 6.246094 -2.421875 5.542969 -1.570312 4.546875 -1.570312 Z M 4.546875 -1.570312 "/></g></g><g style="fill:#ffffff;fill-opacity:1;"><g transform="translate(122.390124, 16.026547)"><path style="stroke:none" d="M 9.386719 -7.757812 C 8.359375 -7.757812 7.640625 -7.320312 7.15625 -6.394531 C 6.820312 -7.246094 6.070312 -7.757812 4.988281 -7.757812 C 4.078125 -7.757812 3.402344 -7.378906 2.933594 -6.601562 L 2.902344 -7.566406 L 0.878906 -7.566406 L 0.878906 0 L 2.949219 0 L 2.949219 -4.046875 C 2.949219 -5.175781 3.492188 -5.894531 4.296875 -5.894531 C 5.015625 -5.894531 5.308594 -5.324219 5.308594 -4.648438 L 5.308594 0 L 7.378906 0 L 7.378906 -4.046875 C 7.378906 -5.175781 7.921875 -5.894531 8.726562 -5.894531 C 9.445312 -5.894531 9.738281 -5.324219 9.738281 -4.648438 L 9.738281 0 L 11.804688 0 L 11.804688 -5.058594 C 11.804688 -6.644531 10.957031 -7.757812 9.386719 -7.757812 Z M 9.386719 -7.757812 "/></g></g><g style="fill:#ffffff;fill-opacity:1;"><g transform="translate(135.073559, 16.026547)"><path style="stroke:none" d="M 8.082031 -3.519531 C 8.082031 -6.175781 6.4375 -7.757812 4.195312 -7.757812 C 1.878906 -7.757812 0.46875 -6.027344 0.46875 -3.8125 C 0.46875 -1.496094 1.90625 0.25 4.414062 0.25 C 6.117188 0.25 7.378906 -0.542969 7.890625 -2.183594 L 5.835938 -2.332031 C 5.589844 -1.671875 5.089844 -1.347656 4.371094 -1.347656 C 3.34375 -1.347656 2.683594 -2.023438 2.597656 -3.167969 L 8.082031 -3.167969 Z M 4.269531 -6.246094 C 5.207031 -6.246094 5.824219 -5.632812 5.941406 -4.574219 L 2.582031 -4.574219 C 2.683594 -5.617188 3.328125 -6.246094 4.269531 -6.246094 Z M 4.269531 -6.246094 "/></g></g><g style="fill:#ffffff;fill-opacity:1;"><g transform="translate(143.622054, 16.026547)"><path style="stroke:none" d="M 5.117188 -7.757812 C 4.152344 -7.757812 3.433594 -7.363281 2.933594 -6.542969 L 2.902344 -7.566406 L 0.878906 -7.566406 L 0.878906 0 L 2.949219 0 L 2.949219 -4.046875 C 2.949219 -5.175781 3.550781 -5.894531 4.429688 -5.894531 C 5.164062 -5.894531 5.53125 -5.398438 5.53125 -4.605469 L 5.53125 0 L 7.597656 0 L 7.597656 -5.074219 C 7.597656 -6.71875 6.6875 -7.757812 5.117188 -7.757812 Z M 5.117188 -7.757812 "/></g></g><g style="fill:#ffffff;fill-opacity:1;"><g transform="translate(152.023891, 16.026547)"><path style="stroke:none" d="M 4.722656 -6.042969 L 4.722656 -7.566406 L 3.316406 -7.523438 L 3.316406 -9.898438 L 1.246094 -9.898438 L 1.246094 -7.539062 L 0.21875 -7.566406 L 0.21875 -6.042969 L 1.246094 -6.085938 L 1.246094 -2.125 C 1.246094 -0.601562 1.847656 0 3.375 0 L 4.722656 0 L 4.722656 -1.65625 L 4.035156 -1.65625 C 3.519531 -1.65625 3.316406 -1.863281 3.316406 -2.375 L 3.316406 -6.085938 Z M 4.722656 -6.042969 "/></g></g></g></g><g transform="matrix(1,0,0,1,102,34)"><g clip-path="url(#522c582f2d)"><g style="fill:#ffffff;fill-opacity:1;"><g transform="translate(1.187421, 15.422114)"><path style="stroke:none" d="M 4.796875 -10.441406 L 1.246094 -10.441406 L 1.246094 0 L 4.503906 0 C 8.039062 0 9.605469 -2.066406 9.605469 -5.222656 C 9.605469 -8.433594 8.097656 -10.441406 4.796875 -10.441406 Z M 2.609375 -1.1875 L 2.609375 -9.253906 L 4.445312 -9.253906 C 7.039062 -9.253906 8.214844 -7.992188 8.214844 -5.222656 C 8.214844 -2.507812 7.097656 -1.1875 4.371094 -1.1875 Z M 2.609375 -1.1875 "/></g></g><g style="fill:#ffffff;fill-opacity:1;"><g transform="translate(11.642097, 15.422114)"><path style="stroke:none" d="M 6.1875 -3.359375 C 6.1875 -1.554688 5.074219 -0.984375 4.035156 -0.984375 C 3.007812 -0.984375 2.523438 -1.539062 2.523438 -2.582031 L 2.523438 -7.566406 L 1.171875 -7.566406 L 1.171875 -2.316406 C 1.171875 -0.71875 2.15625 0.191406 3.738281 0.191406 C 4.855469 0.191406 5.765625 -0.265625 6.277344 -1.070312 L 6.277344 0 L 7.539062 0 L 7.539062 -7.566406 L 6.1875 -7.566406 Z M 6.1875 -3.359375 "/></g></g><g style="fill:#ffffff;fill-opacity:1;"><g transform="translate(20.351874, 15.422114)"><path style="stroke:none" d="M 4.765625 -7.773438 C 3.621094 -7.773438 2.890625 -7.128906 2.433594 -6.117188 L 2.433594 -7.566406 L 1.171875 -7.566406 L 1.171875 0 L 2.523438 0 L 2.523438 -4.136719 C 2.582031 -5.675781 3.695312 -6.453125 4.691406 -6.453125 C 4.824219 -6.453125 4.972656 -6.453125 5.175781 -6.4375 L 5.175781 -7.742188 C 5.046875 -7.757812 4.914062 -7.773438 4.765625 -7.773438 Z M 4.765625 -7.773438 "/></g></g><g style="fill:#ffffff;fill-opacity:1;"><g transform="translate(25.6745, 15.422114)"><path style="stroke:none" d="M 7.847656 -0.996094 C 7.347656 -0.996094 7.1875 -1.160156 7.1875 -1.65625 L 7.1875 -5.351562 C 7.1875 -7.011719 6.101562 -7.773438 4.222656 -7.773438 C 2.273438 -7.773438 1.203125 -6.980469 1.070312 -5.308594 L 2.40625 -5.308594 C 2.492188 -6.320312 3.035156 -6.660156 4.121094 -6.660156 C 5.292969 -6.660156 5.824219 -6.277344 5.824219 -5.484375 L 5.824219 -5.191406 C 5.824219 -4.839844 5.648438 -4.664062 5.28125 -4.621094 L 3.34375 -4.371094 C 1.511719 -4.136719 0.761719 -3.257812 0.761719 -2.007812 C 0.761719 -0.617188 1.761719 0.191406 3.300781 0.191406 C 4.589844 0.191406 5.558594 -0.382812 6.042969 -1.113281 C 6.101562 -0.367188 6.542969 0 7.347656 0 L 8.066406 0 L 8.066406 -0.996094 Z M 3.550781 -0.851562 C 2.667969 -0.851562 2.097656 -1.289062 2.097656 -2.066406 C 2.097656 -2.742188 2.507812 -3.210938 3.5625 -3.375 L 5.824219 -3.710938 L 5.824219 -2.65625 C 5.824219 -1.6875 4.765625 -0.851562 3.550781 -0.851562 Z M 3.550781 -0.851562 "/></g></g><g style="fill:#ffffff;fill-opacity:1;"><g transform="translate(34.032372, 15.422114)"><path style="stroke:none" d="M 4.796875 -6.527344 L 4.796875 -7.566406 L 3.066406 -7.507812 L 3.066406 -9.886719 L 1.714844 -9.886719 L 1.714844 -7.523438 L 0.585938 -7.566406 L 0.585938 -6.527344 L 1.714844 -6.585938 L 1.714844 -1.6875 C 1.714844 -0.511719 2.230469 0 3.402344 0 L 4.78125 0 L 4.78125 -1.128906 L 3.796875 -1.128906 C 3.242188 -1.128906 3.066406 -1.304688 3.066406 -1.863281 L 3.066406 -6.585938 Z M 4.796875 -6.527344 "/></g></g><g style="fill:#ffffff;fill-opacity:1;"><g transform="translate(39.267037, 15.422114)"><path style="stroke:none" d="M 2.523438 -8.992188 L 2.523438 -10.441406 L 1.171875 -10.441406 L 1.171875 -8.992188 Z M 2.523438 0 L 2.523438 -7.566406 L 1.171875 -7.566406 L 1.171875 0 Z M 2.523438 0 "/></g></g><g style="fill:#ffffff;fill-opacity:1;"><g transform="translate(42.962097, 15.422114)"><path style="stroke:none" d="M 4.371094 0.191406 C 6.496094 0.191406 8.023438 -1.464844 8.023438 -3.84375 C 8.023438 -6.246094 6.527344 -7.757812 4.414062 -7.757812 C 2.242188 -7.757812 0.734375 -6.21875 0.734375 -3.785156 C 0.734375 -1.40625 2.199219 0.191406 4.371094 0.191406 Z M 4.371094 -0.9375 C 2.949219 -0.9375 2.082031 -2.066406 2.082031 -3.785156 C 2.082031 -5.5 2.933594 -6.628906 4.371094 -6.628906 C 5.835938 -6.628906 6.671875 -5.558594 6.671875 -3.84375 C 6.671875 -2.125 5.835938 -0.9375 4.371094 -0.9375 Z M 4.371094 -0.9375 "/></g></g><g style="fill:#ffffff;fill-opacity:1;"><g transform="translate(51.715869, 15.422114)"><path style="stroke:none" d="M 4.972656 -7.757812 C 3.855469 -7.757812 2.949219 -7.304688 2.433594 -6.496094 L 2.433594 -7.566406 L 1.171875 -7.566406 L 1.171875 0 L 2.523438 0 L 2.523438 -4.210938 C 2.523438 -6.011719 3.636719 -6.585938 4.679688 -6.585938 C 5.707031 -6.585938 6.1875 -6.027344 6.1875 -4.988281 L 6.1875 0 L 7.539062 0 L 7.539062 -5.25 C 7.539062 -6.847656 6.554688 -7.757812 4.972656 -7.757812 Z M 4.972656 -7.757812 "/></g></g><g style="fill:#ffffff;fill-opacity:1;"><g transform="translate(60.425646, 15.422114)"><path style="stroke:none" d="M 2.902344 -6.085938 L 2.902344 -7.566406 L 1.246094 -7.566406 L 1.246094 -6.085938 Z M 2.902344 0 L 2.902344 -1.480469 L 1.246094 -1.480469 L 1.246094 0 Z M 2.902344 0 "/></g></g><g style="fill:#ffffff;fill-opacity:1;"><g transform="translate(64.575257, 15.422114)"><path style="stroke:none" d=""/></g></g><g style="fill:#ffffff;fill-opacity:1;"><g transform="translate(68.534245, 15.422114)"><path style="stroke:none" d="M 4.691406 0.234375 C 6.894531 0.234375 8.652344 -0.867188 8.652344 -2.933594 C 8.652344 -4.328125 7.847656 -5.25 6.644531 -5.617188 L 6.644531 -5.632812 C 7.566406 -6.058594 8.140625 -6.863281 8.140625 -7.949219 C 8.140625 -9.621094 6.746094 -10.617188 4.691406 -10.617188 C 2.640625 -10.617188 1.246094 -9.621094 1.246094 -7.949219 C 1.246094 -6.863281 1.820312 -6.058594 2.742188 -5.632812 L 2.742188 -5.617188 C 1.539062 -5.25 0.734375 -4.328125 0.734375 -2.933594 C 0.734375 -0.867188 2.492188 0.234375 4.691406 0.234375 Z M 4.691406 -6.144531 C 3.328125 -6.144531 2.539062 -6.761719 2.539062 -7.859375 C 2.539062 -8.945312 3.316406 -9.488281 4.691406 -9.488281 C 6.070312 -9.488281 6.847656 -8.945312 6.847656 -7.859375 C 6.847656 -6.761719 6.070312 -6.144531 4.691406 -6.144531 Z M 4.691406 -0.894531 C 3.109375 -0.894531 2.125 -1.6875 2.125 -2.976562 C 2.125 -4.253906 3.109375 -5.015625 4.691406 -5.015625 C 6.277344 -5.015625 7.261719 -4.253906 7.261719 -2.976562 C 7.261719 -1.6875 6.277344 -0.894531 4.691406 -0.894531 Z M 4.691406 -0.894531 "/></g></g><g style="fill:#ffffff;fill-opacity:1;"><g transform="translate(77.918521, 15.422114)"><path style="stroke:none" d=""/></g></g><g style="fill:#ffffff;fill-opacity:1;"><g transform="translate(81.877509, 15.422114)"><path style="stroke:none" d="M 5.015625 0.21875 C 7.90625 0.21875 9.050781 -1.21875 9.050781 -2.875 C 9.050781 -4.503906 7.992188 -5.425781 6.058594 -5.835938 L 4.222656 -6.234375 C 2.917969 -6.511719 2.40625 -6.980469 2.40625 -7.800781 C 2.40625 -8.902344 3.285156 -9.535156 4.78125 -9.535156 C 6.378906 -9.535156 7.304688 -8.828125 7.421875 -7.507812 L 8.726562 -7.507812 C 8.550781 -9.519531 7.144531 -10.648438 4.824219 -10.648438 C 2.421875 -10.648438 1.113281 -9.445312 1.113281 -7.683594 C 1.113281 -6.027344 2.347656 -5.324219 4.046875 -4.972656 L 5.515625 -4.664062 C 7.144531 -4.328125 7.730469 -3.785156 7.730469 -2.800781 C 7.730469 -1.628906 6.847656 -0.894531 5.058594 -0.894531 C 3.257812 -0.894531 2.199219 -1.644531 2.054688 -3.375 L 0.746094 -3.375 C 0.925781 -0.96875 2.40625 0.21875 5.015625 0.21875 Z M 5.015625 0.21875 "/></g></g><g style="fill:#ffffff;fill-opacity:1;"><g transform="translate(91.67234, 15.422114)"><path style="stroke:none" d="M 4.824219 -7.730469 C 3.710938 -7.730469 2.785156 -7.1875 2.347656 -6.351562 L 2.347656 -7.566406 L 1.171875 -7.566406 L 1.171875 2.992188 L 2.523438 2.992188 L 2.523438 -0.925781 C 3.007812 -0.277344 3.796875 0.160156 4.765625 0.160156 C 6.820312 0.160156 8.082031 -1.613281 8.082031 -3.960938 C 8.082031 -6.246094 6.746094 -7.730469 4.824219 -7.730469 Z M 4.632812 -0.996094 C 3.375 -0.996094 2.449219 -2.082031 2.449219 -3.871094 C 2.449219 -5.660156 3.375 -6.570312 4.632812 -6.570312 C 5.941406 -6.570312 6.730469 -5.691406 6.730469 -3.960938 C 6.730469 -2.199219 5.941406 -0.996094 4.632812 -0.996094 Z M 4.632812 -0.996094 "/></g></g><g style="fill:#ffffff;fill-opacity:1;"><g transform="translate(100.484763, 15.422114)"><path style="stroke:none" d="M 4.765625 -7.773438 C 3.621094 -7.773438 2.890625 -7.128906 2.433594 -6.117188 L 2.433594 -7.566406 L 1.171875 -7.566406 L 1.171875 0 L 2.523438 0 L 2.523438 -4.136719 C 2.582031 -5.675781 3.695312 -6.453125 4.691406 -6.453125 C 4.824219 -6.453125 4.972656 -6.453125 5.175781 -6.4375 L 5.175781 -7.742188 C 5.046875 -7.757812 4.914062 -7.773438 4.765625 -7.773438 Z M 4.765625 -7.773438 "/></g></g><g style="fill:#ffffff;fill-opacity:1;"><g transform="translate(105.880726, 15.422114)"><path style="stroke:none" d="M 2.523438 -8.992188 L 2.523438 -10.441406 L 1.171875 -10.441406 L 1.171875 -8.992188 Z M 2.523438 0 L 2.523438 -7.566406 L 1.171875 -7.566406 L 1.171875 0 Z M 2.523438 0 "/></g></g><g style="fill:#ffffff;fill-opacity:1;"><g transform="translate(109.575786, 15.422114)"><path style="stroke:none" d="M 4.972656 -7.757812 C 3.855469 -7.757812 2.949219 -7.304688 2.433594 -6.496094 L 2.433594 -7.566406 L 1.171875 -7.566406 L 1.171875 0 L 2.523438 0 L 2.523438 -4.210938 C 2.523438 -6.011719 3.636719 -6.585938 4.679688 -6.585938 C 5.707031 -6.585938 6.1875 -6.027344 6.1875 -4.988281 L 6.1875 0 L 7.539062 0 L 7.539062 -5.25 C 7.539062 -6.847656 6.554688 -7.757812 4.972656 -7.757812 Z M 4.972656 -7.757812 "/></g></g><g style="fill:#ffffff;fill-opacity:1;"><g transform="translate(118.285562, 15.422114)"><path style="stroke:none" d="M 4.796875 -6.527344 L 4.796875 -7.566406 L 3.066406 -7.507812 L 3.066406 -9.886719 L 1.714844 -9.886719 L 1.714844 -7.523438 L 0.585938 -7.566406 L 0.585938 -6.527344 L 1.714844 -6.585938 L 1.714844 -1.6875 C 1.714844 -0.511719 2.230469 0 3.402344 0 L 4.78125 0 L 4.78125 -1.128906 L 3.796875 -1.128906 C 3.242188 -1.128906 3.066406 -1.304688 3.066406 -1.863281 L 3.066406 -6.585938 Z M 4.796875 -6.527344 "/></g></g><g style="fill:#ffffff;fill-opacity:1;"><g transform="translate(123.520228, 15.422114)"><path style="stroke:none" d="M 3.726562 0.191406 C 5.71875 0.191406 6.894531 -0.71875 6.894531 -2.199219 C 6.894531 -3.300781 6.234375 -3.988281 4.664062 -4.339844 L 3.199219 -4.664062 C 2.300781 -4.855469 2.023438 -5.191406 2.023438 -5.675781 C 2.023438 -6.351562 2.597656 -6.671875 3.550781 -6.671875 C 4.621094 -6.671875 5.191406 -6.234375 5.339844 -5.367188 L 6.671875 -5.425781 C 6.453125 -7.011719 5.28125 -7.742188 3.59375 -7.742188 C 1.730469 -7.742188 0.777344 -6.878906 0.777344 -5.558594 C 0.777344 -4.488281 1.40625 -3.8125 2.875 -3.503906 L 4.398438 -3.183594 C 5.191406 -3.019531 5.601562 -2.683594 5.601562 -2.082031 C 5.601562 -1.363281 5.015625 -0.894531 3.785156 -0.894531 C 2.625 -0.894531 1.996094 -1.335938 1.863281 -2.390625 L 0.585938 -2.332031 C 0.761719 -0.644531 1.832031 0.191406 3.726562 0.191406 Z M 3.726562 0.191406 "/></g></g><g style="fill:#ffffff;fill-opacity:1;"><g transform="translate(130.925002, 15.422114)"><path style="stroke:none" d=""/></g></g><g style="fill:#ffffff;fill-opacity:1;"><g transform="translate(134.88399, 15.422114)"><path style="stroke:none" d="M 2.597656 2.992188 L 2.597656 -10.957031 L 1.246094 -10.957031 L 1.246094 2.992188 Z M 2.597656 2.992188 "/></g></g><g style="fill:#ffffff;fill-opacity:1;"><g transform="translate(138.725676, 15.422114)"><path style="stroke:none" d=""/></g></g><g style="fill:#ffffff;fill-opacity:1;"><g transform="translate(142.684664, 15.422114)"><path style="stroke:none" d="M 6.90625 -10.441406 L 5.867188 -10.441406 L 0.792969 -3.738281 L 0.792969 -2.464844 L 5.542969 -2.464844 L 5.542969 0 L 6.90625 0 L 6.90625 -2.464844 L 8.59375 -2.464844 L 8.59375 -3.652344 L 6.90625 -3.652344 Z M 2.183594 -3.652344 L 5.515625 -8.039062 L 5.542969 -8.039062 L 5.542969 -3.652344 Z M 2.183594 -3.652344 "/></g></g><g style="fill:#ffffff;fill-opacity:1;"><g transform="translate(152.06894, 15.422114)"><path style="stroke:none" d=""/></g></g><g style="fill:#ffffff;fill-opacity:1;"><g transform="translate(156.027928, 15.422114)"><path style="stroke:none" d="M 6.835938 -2.464844 L 6.484375 -1.421875 L 6.128906 -2.464844 L 3.167969 -10.441406 L 1.246094 -10.441406 L 1.246094 0 L 2.492188 0 L 2.492188 -6.921875 L 2.449219 -8.816406 L 3.136719 -7.171875 L 5.835938 0 L 7.128906 0 L 9.621094 -6.9375 L 10.371094 -8.800781 L 10.339844 -6.921875 L 10.339844 0 L 11.585938 0 L 11.585938 -10.441406 L 9.695312 -10.441406 Z M 6.835938 -2.464844 "/></g></g><g style="fill:#ffffff;fill-opacity:1;"><g transform="translate(168.85799, 15.422114)"><path style="stroke:none" d="M 4.371094 0.191406 C 6.496094 0.191406 8.023438 -1.464844 8.023438 -3.84375 C 8.023438 -6.246094 6.527344 -7.757812 4.414062 -7.757812 C 2.242188 -7.757812 0.734375 -6.21875 0.734375 -3.785156 C 0.734375 -1.40625 2.199219 0.191406 4.371094 0.191406 Z M 4.371094 -0.9375 C 2.949219 -0.9375 2.082031 -2.066406 2.082031 -3.785156 C 2.082031 -5.5 2.933594 -6.628906 4.371094 -6.628906 C 5.835938 -6.628906 6.671875 -5.558594 6.671875 -3.84375 C 6.671875 -2.125 5.835938 -0.9375 4.371094 -0.9375 Z M 4.371094 -0.9375 "/></g></g><g style="fill:#ffffff;fill-opacity:1;"><g transform="translate(177.611763, 15.422114)"><path style="stroke:none" d="M 4.972656 -7.757812 C 3.855469 -7.757812 2.949219 -7.304688 2.433594 -6.496094 L 2.433594 -7.566406 L 1.171875 -7.566406 L 1.171875 0 L 2.523438 0 L 2.523438 -4.210938 C 2.523438 -6.011719 3.636719 -6.585938 4.679688 -6.585938 C 5.707031 -6.585938 6.1875 -6.027344 6.1875 -4.988281 L 6.1875 0 L 7.539062 0 L 7.539062 -5.25 C 7.539062 -6.847656 6.554688 -7.757812 4.972656 -7.757812 Z M 4.972656 -7.757812 "/></g></g><g style="fill:#ffffff;fill-opacity:1;"><g transform="translate(186.32154, 15.422114)"><path style="stroke:none" d="M 4.796875 -6.527344 L 4.796875 -7.566406 L 3.066406 -7.507812 L 3.066406 -9.886719 L 1.714844 -9.886719 L 1.714844 -7.523438 L 0.585938 -7.566406 L 0.585938 -6.527344 L 1.714844 -6.585938 L 1.714844 -1.6875 C 1.714844 -0.511719 2.230469 0 3.402344 0 L 4.78125 0 L 4.78125 -1.128906 L 3.796875 -1.128906 C 3.242188 -1.128906 3.066406 -1.304688 3.066406 -1.863281 L 3.066406 -6.585938 Z M 4.796875 -6.527344 "/></g></g><g style="fill:#ffffff;fill-opacity:1;"><g transform="translate(191.556205, 15.422114)"><path style="stroke:none" d="M 4.972656 -7.757812 C 3.914062 -7.757812 3.050781 -7.347656 2.523438 -6.613281 L 2.523438 -10.441406 L 1.171875 -10.441406 L 1.171875 0 L 2.523438 0 L 2.523438 -4.210938 C 2.523438 -6.011719 3.636719 -6.585938 4.679688 -6.585938 C 5.707031 -6.585938 6.1875 -6.027344 6.1875 -4.988281 L 6.1875 0 L 7.539062 0 L 7.539062 -5.25 C 7.539062 -6.847656 6.554688 -7.757812 4.972656 -7.757812 Z M 4.972656 -7.757812 "/></g></g><g style="fill:#ffffff;fill-opacity:1;"><g transform="translate(200.265982, 15.422114)"><path style="stroke:none" d="M 3.726562 0.191406 C 5.71875 0.191406 6.894531 -0.71875 6.894531 -2.199219 C 6.894531 -3.300781 6.234375 -3.988281 4.664062 -4.339844 L 3.199219 -4.664062 C 2.300781 -4.855469 2.023438 -5.191406 2.023438 -5.675781 C 2.023438 -6.351562 2.597656 -6.671875 3.550781 -6.671875 C 4.621094 -6.671875 5.191406 -6.234375 5.339844 -5.367188 L 6.671875 -5.425781 C 6.453125 -7.011719 5.28125 -7.742188 3.59375 -7.742188 C 1.730469 -7.742188 0.777344 -6.878906 0.777344 -5.558594 C 0.777344 -4.488281 1.40625 -3.8125 2.875 -3.503906 L 4.398438 -3.183594 C 5.191406 -3.019531 5.601562 -2.683594 5.601562 -2.082031 C 5.601562 -1.363281 5.015625 -0.894531 3.785156 -0.894531 C 2.625 -0.894531 1.996094 -1.335938 1.863281 -2.390625 L 0.585938 -2.332031 C 0.761719 -0.644531 1.832031 0.191406 3.726562 0.191406 Z M 3.726562 0.191406 "/></g></g></g></g><g style="fill:#ffffff;fill-opacity:1;"><g transform="translate(107.008685, 184.772626)"><path style="stroke:none" d="M 10.179688 0 L 6.570312 -10.445312 L 4.0625 -10.445312 L 0.367188 0 L 2.671875 0 L 3.375 -2.171875 L 7.160156 -2.171875 L 7.863281 0 Z M 4.386719 -5.25 L 5.28125 -8.257812 L 6.160156 -5.25 L 6.585938 -3.960938 L 3.960938 -3.960938 Z M 4.386719 -5.25 "/></g></g><g style="fill:#ffffff;fill-opacity:1;"><g transform="translate(117.40269, 184.772626)"><path style="stroke:none" d="M 3.125 0 L 3.125 -10.445312 L 0.953125 -10.445312 L 0.953125 0 Z M 3.125 0 "/></g></g><g style="fill:#ffffff;fill-opacity:1;"><g transform="translate(121.478239, 184.772626)"><path style="stroke:none" d=""/></g></g><g style="fill:#ffffff;fill-opacity:1;"><g transform="translate(125.143301, 184.772626)"><path style="stroke:none" d="M 10.179688 0 L 6.570312 -10.445312 L 4.0625 -10.445312 L 0.367188 0 L 2.671875 0 L 3.375 -2.171875 L 7.160156 -2.171875 L 7.863281 0 Z M 4.386719 -5.25 L 5.28125 -8.257812 L 6.160156 -5.25 L 6.585938 -3.960938 L 3.960938 -3.960938 Z M 4.386719 -5.25 "/></g></g><g style="fill:#ffffff;fill-opacity:1;"><g transform="translate(135.46396, 184.772626)"><path style="stroke:none" d="M 5.925781 -6.628906 C 5.429688 -7.378906 4.679688 -7.761719 3.710938 -7.761719 C 1.847656 -7.761719 0.46875 -6.335938 0.46875 -3.929688 C 0.46875 -1.585938 1.820312 0 3.710938 0 C 4.5625 0 5.25 -0.308594 5.765625 -0.925781 L 5.765625 0.117188 C 5.765625 1.070312 5.382812 1.628906 4.179688 1.628906 C 3.285156 1.628906 2.773438 1.320312 2.65625 0.617188 L 0.75 0.617188 C 0.894531 2.199219 2.054688 3.167969 4.226562 3.167969 C 6.5 3.167969 7.832031 2.082031 7.832031 0.0898438 L 7.832031 -7.570312 L 6 -7.570312 Z M 4.167969 -1.761719 C 3.167969 -1.761719 2.464844 -2.582031 2.464844 -3.929688 C 2.464844 -5.265625 3.167969 -6.101562 4.167969 -6.101562 C 5.164062 -6.101562 5.867188 -5.25 5.867188 -3.929688 C 5.867188 -2.609375 5.164062 -1.761719 4.167969 -1.761719 Z M 4.167969 -1.761719 "/></g></g><g style="fill:#ffffff;fill-opacity:1;"><g transform="translate(144.172147, 184.772626)"><path style="stroke:none" d="M 8.082031 -3.519531 C 8.082031 -6.175781 6.441406 -7.761719 4.195312 -7.761719 C 1.878906 -7.761719 0.46875 -6.03125 0.46875 -3.8125 C 0.46875 -1.496094 1.90625 0.25 4.414062 0.25 C 6.117188 0.25 7.378906 -0.542969 7.890625 -2.1875 L 5.839844 -2.332031 C 5.589844 -1.671875 5.089844 -1.351562 4.371094 -1.351562 C 3.34375 -1.351562 2.683594 -2.023438 2.597656 -3.167969 L 8.082031 -3.167969 Z M 4.269531 -6.25 C 5.207031 -6.25 5.824219 -5.632812 5.941406 -4.578125 L 2.582031 -4.578125 C 2.683594 -5.617188 3.332031 -6.25 4.269531 -6.25 Z M 4.269531 -6.25 "/></g></g><g style="fill:#ffffff;fill-opacity:1;"><g transform="translate(152.719064, 184.772626)"><path style="stroke:none" d="M 5.121094 -7.761719 C 4.152344 -7.761719 3.433594 -7.363281 2.933594 -6.542969 L 2.90625 -7.570312 L 0.878906 -7.570312 L 0.878906 0 L 2.949219 0 L 2.949219 -4.050781 C 2.949219 -5.179688 3.550781 -5.898438 4.429688 -5.898438 C 5.164062 -5.898438 5.53125 -5.398438 5.53125 -4.605469 L 5.53125 0 L 7.597656 0 L 7.597656 -5.074219 C 7.597656 -6.71875 6.691406 -7.761719 5.121094 -7.761719 Z M 5.121094 -7.761719 "/></g></g><g style="fill:#ffffff;fill-opacity:1;"><g transform="translate(161.119336, 184.772626)"><path style="stroke:none" d="M 4.722656 -6.042969 L 4.722656 -7.570312 L 3.316406 -7.527344 L 3.316406 -9.902344 L 1.246094 -9.902344 L 1.246094 -7.539062 L 0.21875 -7.570312 L 0.21875 -6.042969 L 1.246094 -6.089844 L 1.246094 -2.128906 C 1.246094 -0.601562 1.847656 0 3.375 0 L 4.722656 0 L 4.722656 -1.65625 L 4.035156 -1.65625 C 3.519531 -1.65625 3.316406 -1.863281 3.316406 -2.375 L 3.316406 -6.089844 Z M 4.722656 -6.042969 "/></g></g><g style="fill:#ffffff;fill-opacity:1;"><g transform="translate(166.133141, 184.772626)"><path style="stroke:none" d="M 4.050781 0.277344 C 6.089844 0.277344 7.410156 -0.644531 7.410156 -2.246094 C 7.410156 -3.417969 6.703125 -4.109375 5.191406 -4.414062 L 3.566406 -4.753906 C 3.023438 -4.871094 2.714844 -5.121094 2.714844 -5.515625 C 2.714844 -6 3.152344 -6.324219 3.84375 -6.324219 C 4.621094 -6.324219 5.179688 -5.925781 5.28125 -5.265625 L 7.144531 -5.339844 C 6.953125 -6.820312 5.707031 -7.761719 3.871094 -7.761719 C 2.011719 -7.761719 0.792969 -6.792969 0.792969 -5.265625 C 0.792969 -4.109375 1.511719 -3.34375 2.992188 -3.050781 L 4.488281 -2.757812 C 5.179688 -2.625 5.488281 -2.40625 5.488281 -1.996094 C 5.488281 -1.421875 4.898438 -1.160156 4.121094 -1.160156 C 3.140625 -1.160156 2.625 -1.585938 2.507812 -2.332031 L 0.617188 -2.257812 C 0.808594 -0.644531 1.980469 0.277344 4.050781 0.277344 Z M 4.050781 0.277344 "/></g></g><g style="fill:#ffffff;fill-opacity:1;"><g transform="translate(174.051651, 184.772626)"><path style="stroke:none" d=""/></g></g><g transform="matrix(1,0,0,1,106,187)"><g clip-path="url(#dc18a480b3)"><g style="fill:#ffffff;fill-opacity:1;"><g transform="translate(1.071213, 15.7322)"><path style="stroke:none" d="M 4.796875 -10.441406 L 1.246094 -10.441406 L 1.246094 0 L 4.503906 0 C 8.039062 0 9.605469 -2.066406 9.605469 -5.222656 C 9.605469 -8.433594 8.097656 -10.441406 4.796875 -10.441406 Z M 2.609375 -1.1875 L 2.609375 -9.253906 L 4.445312 -9.253906 C 7.039062 -9.253906 8.214844 -7.992188 8.214844 -5.222656 C 8.214844 -2.507812 7.097656 -1.1875 4.371094 -1.1875 Z M 2.609375 -1.1875 "/></g></g><g style="fill:#ffffff;fill-opacity:1;"><g transform="translate(11.525888, 15.7322)"><path style="stroke:none" d="M 6.1875 -3.359375 C 6.1875 -1.554688 5.074219 -0.984375 4.035156 -0.984375 C 3.007812 -0.984375 2.523438 -1.539062 2.523438 -2.582031 L 2.523438 -7.566406 L 1.171875 -7.566406 L 1.171875 -2.316406 C 1.171875 -0.71875 2.15625 0.191406 3.738281 0.191406 C 4.855469 0.191406 5.765625 -0.265625 6.277344 -1.070312 L 6.277344 0 L 7.539062 0 L 7.539062 -7.566406 L 6.1875 -7.566406 Z M 6.1875 -3.359375 "/></g></g><g style="fill:#ffffff;fill-opacity:1;"><g transform="translate(20.235665, 15.7322)"><path style="stroke:none" d="M 4.765625 -7.773438 C 3.621094 -7.773438 2.890625 -7.128906 2.433594 -6.117188 L 2.433594 -7.566406 L 1.171875 -7.566406 L 1.171875 0 L 2.523438 0 L 2.523438 -4.136719 C 2.582031 -5.675781 3.695312 -6.453125 4.691406 -6.453125 C 4.824219 -6.453125 4.972656 -6.453125 5.175781 -6.4375 L 5.175781 -7.742188 C 5.046875 -7.757812 4.914062 -7.773438 4.765625 -7.773438 Z M 4.765625 -7.773438 "/></g></g><g style="fill:#ffffff;fill-opacity:1;"><g transform="translate(25.558291, 15.7322)"><path style="stroke:none" d="M 7.847656 -0.996094 C 7.347656 -0.996094 7.1875 -1.160156 7.1875 -1.65625 L 7.1875 -5.351562 C 7.1875 -7.011719 6.101562 -7.773438 4.222656 -7.773438 C 2.273438 -7.773438 1.203125 -6.980469 1.070312 -5.308594 L 2.40625 -5.308594 C 2.492188 -6.320312 3.035156 -6.660156 4.121094 -6.660156 C 5.292969 -6.660156 5.824219 -6.277344 5.824219 -5.484375 L 5.824219 -5.191406 C 5.824219 -4.839844 5.648438 -4.664062 5.28125 -4.621094 L 3.34375 -4.371094 C 1.511719 -4.136719 0.761719 -3.257812 0.761719 -2.007812 C 0.761719 -0.617188 1.761719 0.191406 3.300781 0.191406 C 4.589844 0.191406 5.558594 -0.382812 6.042969 -1.113281 C 6.101562 -0.367188 6.542969 0 7.347656 0 L 8.066406 0 L 8.066406 -0.996094 Z M 3.550781 -0.851562 C 2.667969 -0.851562 2.097656 -1.289062 2.097656 -2.066406 C 2.097656 -2.742188 2.507812 -3.210938 3.5625 -3.375 L 5.824219 -3.710938 L 5.824219 -2.65625 C 5.824219 -1.6875 4.765625 -0.851562 3.550781 -0.851562 Z M 3.550781 -0.851562 "/></g></g><g style="fill:#ffffff;fill-opacity:1;"><g transform="translate(33.916163, 15.7322)"><path style="stroke:none" d="M 4.796875 -6.527344 L 4.796875 -7.566406 L 3.066406 -7.507812 L 3.066406 -9.886719 L 1.714844 -9.886719 L 1.714844 -7.523438 L 0.585938 -7.566406 L 0.585938 -6.527344 L 1.714844 -6.585938 L 1.714844 -1.6875 C 1.714844 -0.511719 2.230469 0 3.402344 0 L 4.78125 0 L 4.78125 -1.128906 L 3.796875 -1.128906 C 3.242188 -1.128906 3.066406 -1.304688 3.066406 -1.863281 L 3.066406 -6.585938 Z M 4.796875 -6.527344 "/></g></g><g style="fill:#ffffff;fill-opacity:1;"><g transform="translate(39.150828, 15.7322)"><path style="stroke:none" d="M 2.523438 -8.992188 L 2.523438 -10.441406 L 1.171875 -10.441406 L 1.171875 -8.992188 Z M 2.523438 0 L 2.523438 -7.566406 L 1.171875 -7.566406 L 1.171875 0 Z M 2.523438 0 "/></g></g><g style="fill:#ffffff;fill-opacity:1;"><g transform="translate(42.845888, 15.7322)"><path style="stroke:none" d="M 4.371094 0.191406 C 6.496094 0.191406 8.023438 -1.464844 8.023438 -3.84375 C 8.023438 -6.246094 6.527344 -7.757812 4.414062 -7.757812 C 2.242188 -7.757812 0.734375 -6.21875 0.734375 -3.785156 C 0.734375 -1.40625 2.199219 0.191406 4.371094 0.191406 Z M 4.371094 -0.9375 C 2.949219 -0.9375 2.082031 -2.066406 2.082031 -3.785156 C 2.082031 -5.5 2.933594 -6.628906 4.371094 -6.628906 C 5.835938 -6.628906 6.671875 -5.558594 6.671875 -3.84375 C 6.671875 -2.125 5.835938 -0.9375 4.371094 -0.9375 Z M 4.371094 -0.9375 "/></g></g><g style="fill:#ffffff;fill-opacity:1;"><g transform="translate(51.599661, 15.7322)"><path style="stroke:none" d="M 4.972656 -7.757812 C 3.855469 -7.757812 2.949219 -7.304688 2.433594 -6.496094 L 2.433594 -7.566406 L 1.171875 -7.566406 L 1.171875 0 L 2.523438 0 L 2.523438 -4.210938 C 2.523438 -6.011719 3.636719 -6.585938 4.679688 -6.585938 C 5.707031 -6.585938 6.1875 -6.027344 6.1875 -4.988281 L 6.1875 0 L 7.539062 0 L 7.539062 -5.25 C 7.539062 -6.847656 6.554688 -7.757812 4.972656 -7.757812 Z M 4.972656 -7.757812 "/></g></g><g style="fill:#ffffff;fill-opacity:1;"><g transform="translate(60.309437, 15.7322)"><path style="stroke:none" d="M 2.902344 -6.085938 L 2.902344 -7.566406 L 1.246094 -7.566406 L 1.246094 -6.085938 Z M 2.902344 0 L 2.902344 -1.480469 L 1.246094 -1.480469 L 1.246094 0 Z M 2.902344 0 "/></g></g><g style="fill:#ffffff;fill-opacity:1;"><g transform="translate(64.459048, 15.7322)"><path style="stroke:none" d=""/></g></g><g style="fill:#ffffff;fill-opacity:1;"><g transform="translate(68.418036, 15.7322)"><path style="stroke:none" d="M 4.988281 -6.804688 C 3.871094 -6.804688 2.976562 -6.351562 2.40625 -5.515625 C 2.492188 -8.214844 3.300781 -9.535156 4.855469 -9.535156 C 5.894531 -9.535156 6.585938 -8.933594 6.71875 -7.933594 L 8.007812 -7.933594 C 7.90625 -9.621094 6.644531 -10.664062 4.882812 -10.664062 C 2.375 -10.664062 1.101562 -8.507812 1.101562 -4.988281 C 1.101562 -3.226562 1.40625 -1.890625 2.113281 -0.996094 C 2.726562 -0.21875 3.609375 0.191406 4.738281 0.191406 C 6.894531 0.191406 8.273438 -1.246094 8.273438 -3.402344 C 8.273438 -5.425781 6.964844 -6.804688 4.988281 -6.804688 Z M 4.765625 -0.9375 C 4.121094 -0.9375 3.578125 -1.171875 3.199219 -1.585938 C 2.800781 -2.007812 2.597656 -2.625 2.597656 -3.375 C 2.597656 -4.765625 3.492188 -5.675781 4.78125 -5.675781 C 6.085938 -5.675781 6.90625 -4.78125 6.90625 -3.328125 C 6.90625 -1.847656 6.058594 -0.9375 4.765625 -0.9375 Z M 4.765625 -0.9375 "/></g></g><g style="fill:#ffffff;fill-opacity:1;"><g transform="translate(77.802312, 15.7322)"><path style="stroke:none" d=""/></g></g><g style="fill:#ffffff;fill-opacity:1;"><g transform="translate(81.7613, 15.7322)"><path style="stroke:none" d="M 5.015625 0.21875 C 7.90625 0.21875 9.050781 -1.21875 9.050781 -2.875 C 9.050781 -4.503906 7.992188 -5.425781 6.058594 -5.835938 L 4.222656 -6.234375 C 2.917969 -6.511719 2.40625 -6.980469 2.40625 -7.800781 C 2.40625 -8.902344 3.285156 -9.535156 4.78125 -9.535156 C 6.378906 -9.535156 7.304688 -8.828125 7.421875 -7.507812 L 8.726562 -7.507812 C 8.550781 -9.519531 7.144531 -10.648438 4.824219 -10.648438 C 2.421875 -10.648438 1.113281 -9.445312 1.113281 -7.683594 C 1.113281 -6.027344 2.347656 -5.324219 4.046875 -4.972656 L 5.515625 -4.664062 C 7.144531 -4.328125 7.730469 -3.785156 7.730469 -2.800781 C 7.730469 -1.628906 6.847656 -0.894531 5.058594 -0.894531 C 3.257812 -0.894531 2.199219 -1.644531 2.054688 -3.375 L 0.746094 -3.375 C 0.925781 -0.96875 2.40625 0.21875 5.015625 0.21875 Z M 5.015625 0.21875 "/></g></g><g style="fill:#ffffff;fill-opacity:1;"><g transform="translate(91.556131, 15.7322)"><path style="stroke:none" d="M 4.824219 -7.730469 C 3.710938 -7.730469 2.785156 -7.1875 2.347656 -6.351562 L 2.347656 -7.566406 L 1.171875 -7.566406 L 1.171875 2.992188 L 2.523438 2.992188 L 2.523438 -0.925781 C 3.007812 -0.277344 3.796875 0.160156 4.765625 0.160156 C 6.820312 0.160156 8.082031 -1.613281 8.082031 -3.960938 C 8.082031 -6.246094 6.746094 -7.730469 4.824219 -7.730469 Z M 4.632812 -0.996094 C 3.375 -0.996094 2.449219 -2.082031 2.449219 -3.871094 C 2.449219 -5.660156 3.375 -6.570312 4.632812 -6.570312 C 5.941406 -6.570312 6.730469 -5.691406 6.730469 -3.960938 C 6.730469 -2.199219 5.941406 -0.996094 4.632812 -0.996094 Z M 4.632812 -0.996094 "/></g></g><g style="fill:#ffffff;fill-opacity:1;"><g transform="translate(100.368555, 15.7322)"><path style="stroke:none" d="M 4.765625 -7.773438 C 3.621094 -7.773438 2.890625 -7.128906 2.433594 -6.117188 L 2.433594 -7.566406 L 1.171875 -7.566406 L 1.171875 0 L 2.523438 0 L 2.523438 -4.136719 C 2.582031 -5.675781 3.695312 -6.453125 4.691406 -6.453125 C 4.824219 -6.453125 4.972656 -6.453125 5.175781 -6.4375 L 5.175781 -7.742188 C 5.046875 -7.757812 4.914062 -7.773438 4.765625 -7.773438 Z M 4.765625 -7.773438 "/></g></g><g style="fill:#ffffff;fill-opacity:1;"><g transform="translate(105.764517, 15.7322)"><path style="stroke:none" d="M 2.523438 -8.992188 L 2.523438 -10.441406 L 1.171875 -10.441406 L 1.171875 -8.992188 Z M 2.523438 0 L 2.523438 -7.566406 L 1.171875 -7.566406 L 1.171875 0 Z M 2.523438 0 "/></g></g><g style="fill:#ffffff;fill-opacity:1;"><g transform="translate(109.459577, 15.7322)"><path style="stroke:none" d="M 4.972656 -7.757812 C 3.855469 -7.757812 2.949219 -7.304688 2.433594 -6.496094 L 2.433594 -7.566406 L 1.171875 -7.566406 L 1.171875 0 L 2.523438 0 L 2.523438 -4.210938 C 2.523438 -6.011719 3.636719 -6.585938 4.679688 -6.585938 C 5.707031 -6.585938 6.1875 -6.027344 6.1875 -4.988281 L 6.1875 0 L 7.539062 0 L 7.539062 -5.25 C 7.539062 -6.847656 6.554688 -7.757812 4.972656 -7.757812 Z M 4.972656 -7.757812 "/></g></g><g style="fill:#ffffff;fill-opacity:1;"><g transform="translate(118.169354, 15.7322)"><path style="stroke:none" d="M 4.796875 -6.527344 L 4.796875 -7.566406 L 3.066406 -7.507812 L 3.066406 -9.886719 L 1.714844 -9.886719 L 1.714844 -7.523438 L 0.585938 -7.566406 L 0.585938 -6.527344 L 1.714844 -6.585938 L 1.714844 -1.6875 C 1.714844 -0.511719 2.230469 0 3.402344 0 L 4.78125 0 L 4.78125 -1.128906 L 3.796875 -1.128906 C 3.242188 -1.128906 3.066406 -1.304688 3.066406 -1.863281 L 3.066406 -6.585938 Z M 4.796875 -6.527344 "/></g></g><g style="fill:#ffffff;fill-opacity:1;"><g transform="translate(123.404019, 15.7322)"><path style="stroke:none" d="M 3.726562 0.191406 C 5.71875 0.191406 6.894531 -0.71875 6.894531 -2.199219 C 6.894531 -3.300781 6.234375 -3.988281 4.664062 -4.339844 L 3.199219 -4.664062 C 2.300781 -4.855469 2.023438 -5.191406 2.023438 -5.675781 C 2.023438 -6.351562 2.597656 -6.671875 3.550781 -6.671875 C 4.621094 -6.671875 5.191406 -6.234375 5.339844 -5.367188 L 6.671875 -5.425781 C 6.453125 -7.011719 5.28125 -7.742188 3.59375 -7.742188 C 1.730469 -7.742188 0.777344 -6.878906 0.777344 -5.558594 C 0.777344 -4.488281 1.40625 -3.8125 2.875 -3.503906 L 4.398438 -3.183594 C 5.191406 -3.019531 5.601562 -2.683594 5.601562 -2.082031 C 5.601562 -1.363281 5.015625 -0.894531 3.785156 -0.894531 C 2.625 -0.894531 1.996094 -1.335938 1.863281 -2.390625 L 0.585938 -2.332031 C 0.761719 -0.644531 1.832031 0.191406 3.726562 0.191406 Z M 3.726562 0.191406 "/></g></g><g style="fill:#ffffff;fill-opacity:1;"><g transform="translate(130.808793, 15.7322)"><path style="stroke:none" d=""/></g></g><g style="fill:#ffffff;fill-opacity:1;"><g transform="translate(134.767781, 15.7322)"><path style="stroke:none" d="M 2.597656 2.992188 L 2.597656 -10.957031 L 1.246094 -10.957031 L 1.246094 2.992188 Z M 2.597656 2.992188 "/></g></g><g style="fill:#ffffff;fill-opacity:1;"><g transform="translate(138.609468, 15.7322)"><path style="stroke:none" d=""/></g></g><g style="fill:#ffffff;fill-opacity:1;"><g transform="translate(142.568456, 15.7322)"><path style="stroke:none" d="M 2.082031 -3.929688 C 2.082031 -4.972656 2.433594 -5.351562 2.960938 -5.351562 C 4.019531 -5.351562 4.839844 -3.929688 6.410156 -3.929688 C 7.597656 -3.929688 8.476562 -4.765625 8.476562 -6.511719 L 7.304688 -6.511719 C 7.304688 -5.46875 6.921875 -5.105469 6.425781 -5.105469 C 5.425781 -5.105469 4.546875 -6.511719 2.976562 -6.511719 C 1.820312 -6.511719 0.910156 -5.71875 0.910156 -3.929688 Z M 2.082031 -3.929688 "/></g></g><g style="fill:#ffffff;fill-opacity:1;"><g transform="translate(151.952732, 15.7322)"><path style="stroke:none" d=""/></g></g><g style="fill:#ffffff;fill-opacity:1;"><g transform="translate(155.91172, 15.7322)"><path style="stroke:none" d="M 4.707031 0.207031 C 7.039062 0.207031 8.609375 -1.070312 8.609375 -3.035156 C 8.609375 -4.371094 7.875 -5.28125 6.484375 -5.558594 L 6.484375 -5.601562 C 7.597656 -6.070312 8.023438 -6.847656 8.023438 -7.800781 C 8.023438 -9.476562 6.671875 -10.574219 4.632812 -10.574219 C 2.507812 -10.574219 1.230469 -9.414062 1.144531 -7.304688 L 2.507812 -7.304688 C 2.582031 -8.769531 3.210938 -9.355469 4.574219 -9.355469 C 5.894531 -9.355469 6.628906 -8.800781 6.628906 -7.683594 C 6.628906 -6.660156 5.984375 -6.070312 4.648438 -6.070312 L 3.902344 -6.070312 L 3.902344 -4.882812 L 5.015625 -4.882812 C 6.511719 -4.882812 7.214844 -4.179688 7.214844 -3.035156 C 7.214844 -1.832031 6.425781 -1.011719 4.738281 -1.011719 C 3.109375 -1.011719 2.214844 -1.773438 2.140625 -3.316406 L 0.777344 -3.316406 C 0.867188 -1.101562 2.347656 0.207031 4.707031 0.207031 Z M 4.707031 0.207031 "/></g></g><g style="fill:#ffffff;fill-opacity:1;"><g transform="translate(165.295996, 15.7322)"><path style="stroke:none" d=""/></g></g><g style="fill:#ffffff;fill-opacity:1;"><g transform="translate(169.254984, 15.7322)"><path style="stroke:none" d="M 6.835938 -2.464844 L 6.484375 -1.421875 L 6.128906 -2.464844 L 3.167969 -10.441406 L 1.246094 -10.441406 L 1.246094 0 L 2.492188 0 L 2.492188 -6.921875 L 2.449219 -8.816406 L 3.136719 -7.171875 L 5.835938 0 L 7.128906 0 L 9.621094 -6.9375 L 10.371094 -8.800781 L 10.339844 -6.921875 L 10.339844 0 L 11.585938 0 L 11.585938 -10.441406 L 9.695312 -10.441406 Z M 6.835938 -2.464844 "/></g></g><g style="fill:#ffffff;fill-opacity:1;"><g transform="translate(182.085046, 15.7322)"><path style="stroke:none" d="M 4.371094 0.191406 C 6.496094 0.191406 8.023438 -1.464844 8.023438 -3.84375 C 8.023438 -6.246094 6.527344 -7.757812 4.414062 -7.757812 C 2.242188 -7.757812 0.734375 -6.21875 0.734375 -3.785156 C 0.734375 -1.40625 2.199219 0.191406 4.371094 0.191406 Z M 4.371094 -0.9375 C 2.949219 -0.9375 2.082031 -2.066406 2.082031 -3.785156 C 2.082031 -5.5 2.933594 -6.628906 4.371094 -6.628906 C 5.835938 -6.628906 6.671875 -5.558594 6.671875 -3.84375 C 6.671875 -2.125 5.835938 -0.9375 4.371094 -0.9375 Z M 4.371094 -0.9375 "/></g></g><g style="fill:#ffffff;fill-opacity:1;"><g transform="translate(190.838818, 15.7322)"><path style="stroke:none" d="M 4.972656 -7.757812 C 3.855469 -7.757812 2.949219 -7.304688 2.433594 -6.496094 L 2.433594 -7.566406 L 1.171875 -7.566406 L 1.171875 0 L 2.523438 0 L 2.523438 -4.210938 C 2.523438 -6.011719 3.636719 -6.585938 4.679688 -6.585938 C 5.707031 -6.585938 6.1875 -6.027344 6.1875 -4.988281 L 6.1875 0 L 7.539062 0 L 7.539062 -5.25 C 7.539062 -6.847656 6.554688 -7.757812 4.972656 -7.757812 Z M 4.972656 -7.757812 "/></g></g><g style="fill:#ffffff;fill-opacity:1;"><g transform="translate(199.548595, 15.7322)"><path style="stroke:none" d="M 4.796875 -6.527344 L 4.796875 -7.566406 L 3.066406 -7.507812 L 3.066406 -9.886719 L 1.714844 -9.886719 L 1.714844 -7.523438 L 0.585938 -7.566406 L 0.585938 -6.527344 L 1.714844 -6.585938 L 1.714844 -1.6875 C 1.714844 -0.511719 2.230469 0 3.402344 0 L 4.78125 0 L 4.78125 -1.128906 L 3.796875 -1.128906 C 3.242188 -1.128906 3.066406 -1.304688 3.066406 -1.863281 L 3.066406 -6.585938 Z M 4.796875 -6.527344 "/></g></g><g style="fill:#ffffff;fill-opacity:1;"><g transform="translate(204.78326, 15.7322)"><path style="stroke:none" d="M 4.972656 -7.757812 C 3.914062 -7.757812 3.050781 -7.347656 2.523438 -6.613281 L 2.523438 -10.441406 L 1.171875 -10.441406 L 1.171875 0 L 2.523438 0 L 2.523438 -4.210938 C 2.523438 -6.011719 3.636719 -6.585938 4.679688 -6.585938 C 5.707031 -6.585938 6.1875 -6.027344 6.1875 -4.988281 L 6.1875 0 L 7.539062 0 L 7.539062 -5.25 C 7.539062 -6.847656 6.554688 -7.757812 4.972656 -7.757812 Z M 4.972656 -7.757812 "/></g></g><g style="fill:#ffffff;fill-opacity:1;"><g transform="translate(213.493037, 15.7322)"><path style="stroke:none" d="M 3.726562 0.191406 C 5.71875 0.191406 6.894531 -0.71875 6.894531 -2.199219 C 6.894531 -3.300781 6.234375 -3.988281 4.664062 -4.339844 L 3.199219 -4.664062 C 2.300781 -4.855469 2.023438 -5.191406 2.023438 -5.675781 C 2.023438 -6.351562 2.597656 -6.671875 3.550781 -6.671875 C 4.621094 -6.671875 5.191406 -6.234375 5.339844 -5.367188 L 6.671875 -5.425781 C 6.453125 -7.011719 5.28125 -7.742188 3.59375 -7.742188 C 1.730469 -7.742188 0.777344 -6.878906 0.777344 -5.558594 C 0.777344 -4.488281 1.40625 -3.8125 2.875 -3.503906 L 4.398438 -3.183594 C 5.191406 -3.019531 5.601562 -2.683594 5.601562 -2.082031 C 5.601562 -1.363281 5.015625 -0.894531 3.785156 -0.894531 C 2.625 -0.894531 1.996094 -1.335938 1.863281 -2.390625 L 0.585938 -2.332031 C 0.761719 -0.644531 1.832031 0.191406 3.726562 0.191406 Z M 3.726562 0.191406 "/></g></g></g></g><g transform="matrix(1,0,0,1,81,89)"><g clip-path="url(#4880711ee0)"><g style="fill:#ffffff;fill-opacity:1;"><g transform="translate(0.363589, 17.057499)"><path style="stroke:none" d="M 8.007812 -6.285156 C 9.257812 -6.640625 9.890625 -7.535156 9.890625 -8.738281 C 9.890625 -10.507812 8.527344 -11.5625 6.429688 -11.5625 L 1.054688 -11.5625 L 1.054688 0 L 6.464844 0 C 8.980469 0 10.246094 -1.558594 10.246094 -3.394531 C 10.246094 -4.691406 9.628906 -5.863281 8.007812 -6.285156 Z M 6.007812 -9.613281 C 7.082031 -9.613281 7.535156 -9.109375 7.535156 -8.378906 C 7.535156 -7.664062 7.082031 -7.097656 5.910156 -7.097656 L 3.460938 -7.097656 L 3.460938 -9.613281 Z M 3.460938 -2.03125 L 3.460938 -5.148438 L 6.15625 -5.148438 C 7.257812 -5.148438 7.890625 -4.597656 7.890625 -3.621094 C 7.890625 -2.695312 7.324219 -2.03125 6.042969 -2.03125 Z M 3.460938 -2.03125 "/></g></g><g style="fill:#ffffff;fill-opacity:1;"><g transform="translate(11.355155, 17.057499)"><path style="stroke:none" d="M 8.394531 0 C 8.152344 -0.421875 8.070312 -0.972656 8.070312 -1.753906 L 8.070312 -5.457031 C 8.070312 -7.519531 6.851562 -8.574219 4.449219 -8.574219 C 2.191406 -8.574219 1.039062 -7.714844 0.875 -5.878906 L 2.972656 -5.847656 C 3.085938 -6.625 3.523438 -6.949219 4.464844 -6.949219 C 5.375 -6.949219 5.878906 -6.660156 5.878906 -6.042969 L 5.878906 -5.425781 L 2.957031 -4.839844 C 1.265625 -4.5 0.40625 -3.636719 0.40625 -2.304688 C 0.40625 -0.78125 1.542969 0.242188 3.3125 0.242188 C 4.417969 0.242188 5.328125 -0.164062 5.894531 -0.84375 C 5.945312 -0.550781 6.007812 -0.292969 6.074219 0 Z M 3.960938 -1.445312 C 3.117188 -1.445312 2.648438 -1.851562 2.648438 -2.453125 C 2.648438 -3.003906 3.035156 -3.363281 3.734375 -3.507812 L 5.878906 -3.960938 L 5.878906 -3.34375 C 5.878906 -2.109375 5.050781 -1.445312 3.960938 -1.445312 Z M 3.960938 -1.445312 "/></g></g><g style="fill:#ffffff;fill-opacity:1;"><g transform="translate(20.398435, 17.057499)"><path style="stroke:none" d="M 4.546875 0.277344 C 6.660156 0.277344 8.085938 -0.894531 8.429688 -2.890625 L 6.1875 -2.890625 C 5.925781 -1.980469 5.390625 -1.511719 4.578125 -1.511719 C 3.410156 -1.511719 2.726562 -2.453125 2.726562 -4.15625 C 2.726562 -5.863281 3.410156 -6.804688 4.578125 -6.804688 C 5.40625 -6.804688 5.945312 -6.367188 6.1875 -5.457031 L 8.429688 -5.457031 C 8.085938 -7.4375 6.691406 -8.589844 4.546875 -8.589844 C 2.0625 -8.589844 0.519531 -6.851562 0.519531 -4.15625 C 0.519531 -1.460938 2.0625 0.277344 4.546875 0.277344 Z M 4.546875 0.277344 "/></g></g><g style="fill:#ffffff;fill-opacity:1;"><g transform="translate(29.27936, 17.057499)"><path style="stroke:none" d="M 8.980469 -8.378906 L 6.105469 -8.378906 L 4.238281 -6.300781 L 3.199219 -5 L 3.265625 -6.933594 L 3.265625 -11.5625 L 0.972656 -11.5625 L 0.972656 0 L 3.265625 0 L 3.265625 -2.777344 L 4.140625 -3.6875 L 4.726562 -2.613281 L 6.332031 0 L 9.046875 0 L 5.714844 -5.082031 Z M 8.980469 -8.378906 "/></g></g><g style="fill:#ffffff;fill-opacity:1;"><g transform="translate(38.078982, 17.057499)"><path style="stroke:none" d="M 8.949219 -3.898438 C 8.949219 -6.835938 7.128906 -8.589844 4.644531 -8.589844 C 2.078125 -8.589844 0.519531 -6.675781 0.519531 -4.222656 C 0.519531 -1.65625 2.109375 0.277344 4.886719 0.277344 C 6.773438 0.277344 8.167969 -0.601562 8.738281 -2.417969 L 6.464844 -2.582031 C 6.1875 -1.851562 5.636719 -1.492188 4.839844 -1.492188 C 3.703125 -1.492188 2.972656 -2.242188 2.875 -3.507812 L 8.949219 -3.507812 Z M 4.726562 -6.917969 C 5.765625 -6.917969 6.445312 -6.234375 6.578125 -5.066406 L 2.859375 -5.066406 C 2.972656 -6.21875 3.6875 -6.917969 4.726562 -6.917969 Z M 4.726562 -6.917969 "/></g></g><g style="fill:#ffffff;fill-opacity:1;"><g transform="translate(47.5444, 17.057499)"><path style="stroke:none" d="M 5.667969 -8.589844 C 4.597656 -8.589844 3.800781 -8.152344 3.246094 -7.242188 L 3.214844 -8.378906 L 0.972656 -8.378906 L 0.972656 0 L 3.265625 0 L 3.265625 -4.480469 C 3.265625 -5.734375 3.929688 -6.527344 4.90625 -6.527344 C 5.714844 -6.527344 6.121094 -5.976562 6.121094 -5.097656 L 6.121094 0 L 8.414062 0 L 8.414062 -5.617188 C 8.414062 -7.4375 7.40625 -8.589844 5.667969 -8.589844 Z M 5.667969 -8.589844 "/></g></g><g style="fill:#ffffff;fill-opacity:1;"><g transform="translate(56.928633, 17.057499)"><path style="stroke:none" d="M 6.382812 -7.535156 C 5.8125 -8.234375 5.019531 -8.589844 3.945312 -8.589844 C 2.046875 -8.589844 0.519531 -6.96875 0.519531 -4.222656 C 0.519531 -1.527344 2.015625 0.277344 4.125 0.277344 C 5.164062 0.277344 5.992188 -0.164062 6.5625 -1.039062 L 6.640625 0 L 8.671875 0 L 8.671875 -11.5625 L 6.382812 -11.5625 Z M 4.613281 -1.738281 C 3.507812 -1.738281 2.726562 -2.679688 2.726562 -4.222656 C 2.726562 -5.75 3.507812 -6.691406 4.613281 -6.691406 C 5.714844 -6.691406 6.496094 -5.734375 6.496094 -4.222656 C 6.496094 -2.710938 5.714844 -1.738281 4.613281 -1.738281 Z M 4.613281 -1.738281 "/></g></g><g style="fill:#ffffff;fill-opacity:1;"><g transform="translate(66.572632, 17.057499)"><path style="stroke:none" d=""/></g></g><g style="fill:#ffffff;fill-opacity:1;"><g transform="translate(70.631558, 17.057499)"><path style="stroke:none" d="M 4.824219 -11.5625 L 1.054688 -11.5625 L 1.054688 0 L 5.148438 0 C 9.078125 0 10.800781 -2.402344 10.800781 -5.863281 C 10.800781 -9.320312 9.160156 -11.5625 4.824219 -11.5625 Z M 3.460938 -2.03125 L 3.460938 -9.613281 L 4.597656 -9.613281 C 7.550781 -9.613281 8.394531 -8.28125 8.394531 -5.78125 C 8.394531 -3.265625 7.46875 -2.03125 4.921875 -2.03125 Z M 3.460938 -2.03125 "/></g></g><g style="fill:#ffffff;fill-opacity:1;"><g transform="translate(81.947833, 17.057499)"><path style="stroke:none" d="M 8.949219 -3.898438 C 8.949219 -6.835938 7.128906 -8.589844 4.644531 -8.589844 C 2.078125 -8.589844 0.519531 -6.675781 0.519531 -4.222656 C 0.519531 -1.65625 2.109375 0.277344 4.886719 0.277344 C 6.773438 0.277344 8.167969 -0.601562 8.738281 -2.417969 L 6.464844 -2.582031 C 6.1875 -1.851562 5.636719 -1.492188 4.839844 -1.492188 C 3.703125 -1.492188 2.972656 -2.242188 2.875 -3.507812 L 8.949219 -3.507812 Z M 4.726562 -6.917969 C 5.765625 -6.917969 6.445312 -6.234375 6.578125 -5.066406 L 2.859375 -5.066406 C 2.972656 -6.21875 3.6875 -6.917969 4.726562 -6.917969 Z M 4.726562 -6.917969 "/></g></g><g style="fill:#ffffff;fill-opacity:1;"><g transform="translate(91.250846, 17.057499)"><path style="stroke:none" d="M 5.035156 -5.863281 L 4.222656 -2.207031 L 3.363281 -5.863281 L 2.664062 -8.378906 L 0.242188 -8.378906 L 3.003906 0 L 5.34375 0 L 8.105469 -8.378906 L 5.796875 -8.378906 Z M 5.035156 -5.863281 "/></g></g><g style="fill:#ffffff;fill-opacity:1;"><g transform="translate(99.433589, 17.057499)"><path style="stroke:none" d="M 8.949219 -3.898438 C 8.949219 -6.835938 7.128906 -8.589844 4.644531 -8.589844 C 2.078125 -8.589844 0.519531 -6.675781 0.519531 -4.222656 C 0.519531 -1.65625 2.109375 0.277344 4.886719 0.277344 C 6.773438 0.277344 8.167969 -0.601562 8.738281 -2.417969 L 6.464844 -2.582031 C 6.1875 -1.851562 5.636719 -1.492188 4.839844 -1.492188 C 3.703125 -1.492188 2.972656 -2.242188 2.875 -3.507812 L 8.949219 -3.507812 Z M 4.726562 -6.917969 C 5.765625 -6.917969 6.445312 -6.234375 6.578125 -5.066406 L 2.859375 -5.066406 C 2.972656 -6.21875 3.6875 -6.917969 4.726562 -6.917969 Z M 4.726562 -6.917969 "/></g></g><g style="fill:#ffffff;fill-opacity:1;"><g transform="translate(108.899007, 17.057499)"><path style="stroke:none" d="M 3.265625 0 L 3.265625 -11.5625 L 0.972656 -11.5625 L 0.972656 0 Z M 3.265625 0 "/></g></g><g style="fill:#ffffff;fill-opacity:1;"><g transform="translate(113.136531, 17.057499)"><path style="stroke:none" d="M 4.808594 0.277344 C 7.324219 0.277344 9.09375 -1.625 9.09375 -4.15625 C 9.09375 -6.691406 7.324219 -8.589844 4.808594 -8.589844 C 2.289062 -8.589844 0.519531 -6.691406 0.519531 -4.15625 C 0.519531 -1.625 2.289062 0.277344 4.808594 0.277344 Z M 4.808594 -1.511719 C 3.523438 -1.511719 2.726562 -2.550781 2.726562 -4.15625 C 2.726562 -5.765625 3.523438 -6.804688 4.808594 -6.804688 C 6.089844 -6.804688 6.886719 -5.765625 6.886719 -4.15625 C 6.886719 -2.550781 6.089844 -1.511719 4.808594 -1.511719 Z M 4.808594 -1.511719 "/></g></g><g style="fill:#ffffff;fill-opacity:1;"><g transform="translate(122.74806, 17.057499)"><path style="stroke:none" d="M 5.699219 -8.589844 C 4.515625 -8.589844 3.652344 -8.152344 3.085938 -7.292969 L 3.003906 -8.378906 L 0.972656 -8.378906 L 0.972656 3.3125 L 3.265625 3.3125 L 3.265625 -0.78125 C 3.816406 -0.0820312 4.597656 0.277344 5.523438 0.277344 C 7.632812 0.277344 9.125 -1.527344 9.125 -4.222656 C 9.125 -6.96875 7.601562 -8.589844 5.699219 -8.589844 Z M 5.035156 -1.738281 C 3.929688 -1.738281 3.152344 -2.710938 3.152344 -4.222656 C 3.152344 -5.734375 3.929688 -6.691406 5.035156 -6.691406 C 6.136719 -6.691406 6.917969 -5.75 6.917969 -4.222656 C 6.917969 -2.679688 6.136719 -1.738281 5.035156 -1.738281 Z M 5.035156 -1.738281 "/></g></g><g style="fill:#ffffff;fill-opacity:1;"><g transform="translate(132.392059, 17.057499)"><path style="stroke:none" d="M 10.394531 -8.589844 C 9.257812 -8.589844 8.460938 -8.105469 7.925781 -7.082031 C 7.550781 -8.023438 6.722656 -8.589844 5.523438 -8.589844 C 4.515625 -8.589844 3.769531 -8.167969 3.246094 -7.308594 L 3.214844 -8.378906 L 0.972656 -8.378906 L 0.972656 0 L 3.265625 0 L 3.265625 -4.480469 C 3.265625 -5.734375 3.863281 -6.527344 4.757812 -6.527344 C 5.554688 -6.527344 5.878906 -5.894531 5.878906 -5.148438 L 5.878906 0 L 8.167969 0 L 8.167969 -4.480469 C 8.167969 -5.734375 8.769531 -6.527344 9.664062 -6.527344 C 10.457031 -6.527344 10.785156 -5.894531 10.785156 -5.148438 L 10.785156 0 L 13.074219 0 L 13.074219 -5.601562 C 13.074219 -7.355469 12.132812 -8.589844 10.394531 -8.589844 Z M 10.394531 -8.589844 "/></g></g><g style="fill:#ffffff;fill-opacity:1;"><g transform="translate(146.435937, 17.057499)"><path style="stroke:none" d="M 8.949219 -3.898438 C 8.949219 -6.835938 7.128906 -8.589844 4.644531 -8.589844 C 2.078125 -8.589844 0.519531 -6.675781 0.519531 -4.222656 C 0.519531 -1.65625 2.109375 0.277344 4.886719 0.277344 C 6.773438 0.277344 8.167969 -0.601562 8.738281 -2.417969 L 6.464844 -2.582031 C 6.1875 -1.851562 5.636719 -1.492188 4.839844 -1.492188 C 3.703125 -1.492188 2.972656 -2.242188 2.875 -3.507812 L 8.949219 -3.507812 Z M 4.726562 -6.917969 C 5.765625 -6.917969 6.445312 -6.234375 6.578125 -5.066406 L 2.859375 -5.066406 C 2.972656 -6.21875 3.6875 -6.917969 4.726562 -6.917969 Z M 4.726562 -6.917969 "/></g></g><g style="fill:#ffffff;fill-opacity:1;"><g transform="translate(155.901356, 17.057499)"><path style="stroke:none" d="M 5.667969 -8.589844 C 4.597656 -8.589844 3.800781 -8.152344 3.246094 -7.242188 L 3.214844 -8.378906 L 0.972656 -8.378906 L 0.972656 0 L 3.265625 0 L 3.265625 -4.480469 C 3.265625 -5.734375 3.929688 -6.527344 4.90625 -6.527344 C 5.714844 -6.527344 6.121094 -5.976562 6.121094 -5.097656 L 6.121094 0 L 8.414062 0 L 8.414062 -5.617188 C 8.414062 -7.4375 7.40625 -8.589844 5.667969 -8.589844 Z M 5.667969 -8.589844 "/></g></g><g style="fill:#ffffff;fill-opacity:1;"><g transform="translate(165.204386, 17.057499)"><path style="stroke:none" d="M 5.230469 -6.691406 L 5.230469 -8.378906 L 3.671875 -8.332031 L 3.671875 -10.960938 L 1.378906 -10.960938 L 1.378906 -8.347656 L 0.242188 -8.378906 L 0.242188 -6.691406 L 1.378906 -6.738281 L 1.378906 -2.355469 C 1.378906 -0.664062 2.046875 0 3.734375 0 L 5.230469 0 L 5.230469 -1.835938 L 4.464844 -1.835938 C 3.898438 -1.835938 3.671875 -2.0625 3.671875 -2.628906 L 3.671875 -6.738281 Z M 5.230469 -6.691406 "/></g></g></g></g><g transform="matrix(1,0,0,1,80,110)"><g clip-path="url(#a5c7818664)"><g style="fill:#ffffff;fill-opacity:1;"><g transform="translate(0.303426, 17.533455)"><path style="stroke:none" d="M 5.308594 -11.5625 L 1.378906 -11.5625 L 1.378906 0 L 4.984375 0 C 8.898438 0 10.636719 -2.289062 10.636719 -5.78125 C 10.636719 -9.335938 8.964844 -11.5625 5.308594 -11.5625 Z M 2.890625 -1.316406 L 2.890625 -10.246094 L 4.921875 -10.246094 C 7.796875 -10.246094 9.09375 -8.851562 9.09375 -5.78125 C 9.09375 -2.777344 7.859375 -1.316406 4.839844 -1.316406 Z M 2.890625 -1.316406 "/></g></g><g style="fill:#ffffff;fill-opacity:1;"><g transform="translate(11.879484, 17.533455)"><path style="stroke:none" d="M 6.851562 -3.71875 C 6.851562 -1.722656 5.617188 -1.089844 4.464844 -1.089844 C 3.328125 -1.089844 2.792969 -1.707031 2.792969 -2.859375 L 2.792969 -8.378906 L 1.300781 -8.378906 L 1.300781 -2.566406 C 1.300781 -0.796875 2.386719 0.210938 4.140625 0.210938 C 5.375 0.210938 6.382812 -0.292969 6.949219 -1.183594 L 6.949219 0 L 8.347656 0 L 8.347656 -8.378906 L 6.851562 -8.378906 Z M 6.851562 -3.71875 "/></g></g><g style="fill:#ffffff;fill-opacity:1;"><g transform="translate(21.523484, 17.533455)"><path style="stroke:none" d="M 5.277344 -8.605469 C 4.011719 -8.605469 3.199219 -7.890625 2.695312 -6.773438 L 2.695312 -8.378906 L 1.300781 -8.378906 L 1.300781 0 L 2.792969 0 L 2.792969 -4.578125 C 2.859375 -6.285156 4.09375 -7.144531 5.195312 -7.144531 C 5.34375 -7.144531 5.503906 -7.144531 5.734375 -7.128906 L 5.734375 -8.574219 C 5.585938 -8.589844 5.441406 -8.605469 5.277344 -8.605469 Z M 5.277344 -8.605469 "/></g></g><g style="fill:#ffffff;fill-opacity:1;"><g transform="translate(27.417022, 17.533455)"><path style="stroke:none" d="M 8.6875 -1.105469 C 8.136719 -1.105469 7.957031 -1.28125 7.957031 -1.835938 L 7.957031 -5.925781 C 7.957031 -7.761719 6.753906 -8.605469 4.675781 -8.605469 C 2.515625 -8.605469 1.332031 -7.730469 1.183594 -5.878906 L 2.664062 -5.878906 C 2.761719 -7 3.363281 -7.371094 4.5625 -7.371094 C 5.863281 -7.371094 6.445312 -6.949219 6.445312 -6.074219 L 6.445312 -5.75 C 6.445312 -5.359375 6.253906 -5.164062 5.847656 -5.117188 L 3.703125 -4.839844 C 1.671875 -4.578125 0.84375 -3.605469 0.84375 -2.226562 C 0.84375 -0.683594 1.949219 0.210938 3.652344 0.210938 C 5.082031 0.210938 6.15625 -0.421875 6.691406 -1.234375 C 6.753906 -0.40625 7.242188 0 8.136719 0 L 8.933594 0 L 8.933594 -1.105469 Z M 3.929688 -0.941406 C 2.957031 -0.941406 2.324219 -1.429688 2.324219 -2.289062 C 2.324219 -3.035156 2.777344 -3.554688 3.945312 -3.734375 L 6.445312 -4.109375 L 6.445312 -2.9375 C 6.445312 -1.867188 5.277344 -0.941406 3.929688 -0.941406 Z M 3.929688 -0.941406 "/></g></g><g style="fill:#ffffff;fill-opacity:1;"><g transform="translate(36.671371, 17.533455)"><path style="stroke:none" d="M 5.308594 -7.226562 L 5.308594 -8.378906 L 3.394531 -8.316406 L 3.394531 -10.945312 L 1.898438 -10.945312 L 1.898438 -8.332031 L 0.648438 -8.378906 L 0.648438 -7.226562 L 1.898438 -7.292969 L 1.898438 -1.867188 C 1.898438 -0.570312 2.46875 0 3.769531 0 L 5.292969 0 L 5.292969 -1.25 L 4.207031 -1.25 C 3.589844 -1.25 3.394531 -1.445312 3.394531 -2.0625 L 3.394531 -7.292969 Z M 5.308594 -7.226562 "/></g></g><g style="fill:#ffffff;fill-opacity:1;"><g transform="translate(42.467514, 17.533455)"><path style="stroke:none" d="M 2.792969 -9.953125 L 2.792969 -11.5625 L 1.300781 -11.5625 L 1.300781 -9.953125 Z M 2.792969 0 L 2.792969 -8.378906 L 1.300781 -8.378906 L 1.300781 0 Z M 2.792969 0 "/></g></g><g style="fill:#ffffff;fill-opacity:1;"><g transform="translate(46.558911, 17.533455)"><path style="stroke:none" d="M 4.839844 0.210938 C 7.195312 0.210938 8.882812 -1.625 8.882812 -4.253906 C 8.882812 -6.917969 7.226562 -8.589844 4.886719 -8.589844 C 2.484375 -8.589844 0.8125 -6.886719 0.8125 -4.191406 C 0.8125 -1.558594 2.4375 0.210938 4.839844 0.210938 Z M 4.839844 -1.039062 C 3.265625 -1.039062 2.304688 -2.289062 2.304688 -4.191406 C 2.304688 -6.089844 3.246094 -7.339844 4.839844 -7.339844 C 6.464844 -7.339844 7.390625 -6.15625 7.390625 -4.253906 C 7.390625 -2.355469 6.464844 -1.039062 4.839844 -1.039062 Z M 4.839844 -1.039062 "/></g></g><g style="fill:#ffffff;fill-opacity:1;"><g transform="translate(56.251625, 17.533455)"><path style="stroke:none" d="M 5.503906 -8.589844 C 4.269531 -8.589844 3.265625 -8.085938 2.695312 -7.195312 L 2.695312 -8.378906 L 1.300781 -8.378906 L 1.300781 0 L 2.792969 0 L 2.792969 -4.660156 C 2.792969 -6.660156 4.027344 -7.292969 5.179688 -7.292969 C 6.316406 -7.292969 6.851562 -6.675781 6.851562 -5.523438 L 6.851562 0 L 8.347656 0 L 8.347656 -5.8125 C 8.347656 -7.582031 7.257812 -8.589844 5.503906 -8.589844 Z M 5.503906 -8.589844 "/></g></g><g style="fill:#ffffff;fill-opacity:1;"><g transform="translate(65.895625, 17.533455)"><path style="stroke:none" d="M 3.214844 -6.738281 L 3.214844 -8.378906 L 1.378906 -8.378906 L 1.378906 -6.738281 Z M 3.214844 0 L 3.214844 -1.640625 L 1.378906 -1.640625 L 1.378906 0 Z M 3.214844 0 "/></g></g><g style="fill:#ffffff;fill-opacity:1;"><g transform="translate(70.490328, 17.533455)"><path style="stroke:none" d=""/></g></g><g style="fill:#ffffff;fill-opacity:1;"><g transform="translate(74.873963, 17.533455)"><path style="stroke:none" d="M 5.195312 0.261719 C 7.632812 0.261719 9.582031 -0.957031 9.582031 -3.246094 C 9.582031 -4.789062 8.6875 -5.8125 7.355469 -6.21875 L 7.355469 -6.234375 C 8.378906 -6.707031 9.011719 -7.601562 9.011719 -8.800781 C 9.011719 -10.652344 7.46875 -11.757812 5.195312 -11.757812 C 2.921875 -11.757812 1.378906 -10.652344 1.378906 -8.800781 C 1.378906 -7.601562 2.015625 -6.707031 3.035156 -6.234375 L 3.035156 -6.21875 C 1.707031 -5.8125 0.8125 -4.789062 0.8125 -3.246094 C 0.8125 -0.957031 2.761719 0.261719 5.195312 0.261719 Z M 5.195312 -6.804688 C 3.6875 -6.804688 2.808594 -7.488281 2.808594 -8.703125 C 2.808594 -9.90625 3.671875 -10.507812 5.195312 -10.507812 C 6.722656 -10.507812 7.582031 -9.90625 7.582031 -8.703125 C 7.582031 -7.488281 6.722656 -6.804688 5.195312 -6.804688 Z M 5.195312 -0.992188 C 3.441406 -0.992188 2.355469 -1.867188 2.355469 -3.296875 C 2.355469 -4.710938 3.441406 -5.554688 5.195312 -5.554688 C 6.949219 -5.554688 8.039062 -4.710938 8.039062 -3.296875 C 8.039062 -1.867188 6.949219 -0.992188 5.195312 -0.992188 Z M 5.195312 -0.992188 "/></g></g><g style="fill:#ffffff;fill-opacity:1;"><g transform="translate(85.264809, 17.533455)"><path style="stroke:none" d=""/></g></g><g style="fill:#ffffff;fill-opacity:1;"><g transform="translate(89.648444, 17.533455)"><path style="stroke:none" d="M 5.554688 0.242188 C 8.753906 0.242188 10.019531 -1.347656 10.019531 -3.183594 C 10.019531 -4.984375 8.851562 -6.007812 6.707031 -6.464844 L 4.675781 -6.902344 C 3.230469 -7.210938 2.664062 -7.730469 2.664062 -8.640625 C 2.664062 -9.859375 3.636719 -10.554688 5.292969 -10.554688 C 7.0625 -10.554688 8.085938 -9.777344 8.21875 -8.316406 L 9.664062 -8.316406 C 9.46875 -10.539062 7.910156 -11.789062 5.34375 -11.789062 C 2.679688 -11.789062 1.234375 -10.457031 1.234375 -8.507812 C 1.234375 -6.675781 2.597656 -5.894531 4.480469 -5.503906 L 6.105469 -5.164062 C 7.910156 -4.789062 8.558594 -4.191406 8.558594 -3.101562 C 8.558594 -1.800781 7.582031 -0.992188 5.601562 -0.992188 C 3.605469 -0.992188 2.4375 -1.820312 2.273438 -3.734375 L 0.828125 -3.734375 C 1.023438 -1.070312 2.664062 0.242188 5.554688 0.242188 Z M 5.554688 0.242188 "/></g></g><g style="fill:#ffffff;fill-opacity:1;"><g transform="translate(100.493882, 17.533455)"><path style="stroke:none" d="M 5.34375 -8.558594 C 4.109375 -8.558594 3.085938 -7.957031 2.597656 -7.03125 L 2.597656 -8.378906 L 1.300781 -8.378906 L 1.300781 3.3125 L 2.792969 3.3125 L 2.792969 -1.023438 C 3.328125 -0.308594 4.207031 0.179688 5.277344 0.179688 C 7.550781 0.179688 8.949219 -1.785156 8.949219 -4.382812 C 8.949219 -6.917969 7.46875 -8.558594 5.34375 -8.558594 Z M 5.132812 -1.105469 C 3.734375 -1.105469 2.710938 -2.304688 2.710938 -4.289062 C 2.710938 -6.269531 3.734375 -7.277344 5.132812 -7.277344 C 6.578125 -7.277344 7.453125 -6.300781 7.453125 -4.382812 C 7.453125 -2.4375 6.578125 -1.105469 5.132812 -1.105469 Z M 5.132812 -1.105469 "/></g></g><g style="fill:#ffffff;fill-opacity:1;"><g transform="translate(110.251539, 17.533455)"><path style="stroke:none" d="M 5.277344 -8.605469 C 4.011719 -8.605469 3.199219 -7.890625 2.695312 -6.773438 L 2.695312 -8.378906 L 1.300781 -8.378906 L 1.300781 0 L 2.792969 0 L 2.792969 -4.578125 C 2.859375 -6.285156 4.09375 -7.144531 5.195312 -7.144531 C 5.34375 -7.144531 5.503906 -7.144531 5.734375 -7.128906 L 5.734375 -8.574219 C 5.585938 -8.589844 5.441406 -8.605469 5.277344 -8.605469 Z M 5.277344 -8.605469 "/></g></g><g style="fill:#ffffff;fill-opacity:1;"><g transform="translate(116.226279, 17.533455)"><path style="stroke:none" d="M 2.792969 -9.953125 L 2.792969 -11.5625 L 1.300781 -11.5625 L 1.300781 -9.953125 Z M 2.792969 0 L 2.792969 -8.378906 L 1.300781 -8.378906 L 1.300781 0 Z M 2.792969 0 "/></g></g><g style="fill:#ffffff;fill-opacity:1;"><g transform="translate(120.317676, 17.533455)"><path style="stroke:none" d="M 5.503906 -8.589844 C 4.269531 -8.589844 3.265625 -8.085938 2.695312 -7.195312 L 2.695312 -8.378906 L 1.300781 -8.378906 L 1.300781 0 L 2.792969 0 L 2.792969 -4.660156 C 2.792969 -6.660156 4.027344 -7.292969 5.179688 -7.292969 C 6.316406 -7.292969 6.851562 -6.675781 6.851562 -5.523438 L 6.851562 0 L 8.347656 0 L 8.347656 -5.8125 C 8.347656 -7.582031 7.257812 -8.589844 5.503906 -8.589844 Z M 5.503906 -8.589844 "/></g></g><g style="fill:#ffffff;fill-opacity:1;"><g transform="translate(129.961676, 17.533455)"><path style="stroke:none" d="M 5.308594 -7.226562 L 5.308594 -8.378906 L 3.394531 -8.316406 L 3.394531 -10.945312 L 1.898438 -10.945312 L 1.898438 -8.332031 L 0.648438 -8.378906 L 0.648438 -7.226562 L 1.898438 -7.292969 L 1.898438 -1.867188 C 1.898438 -0.570312 2.46875 0 3.769531 0 L 5.292969 0 L 5.292969 -1.25 L 4.207031 -1.25 C 3.589844 -1.25 3.394531 -1.445312 3.394531 -2.0625 L 3.394531 -7.292969 Z M 5.308594 -7.226562 "/></g></g><g style="fill:#ffffff;fill-opacity:1;"><g transform="translate(135.757818, 17.533455)"><path style="stroke:none" d="M 4.125 0.210938 C 6.332031 0.210938 7.632812 -0.796875 7.632812 -2.4375 C 7.632812 -3.652344 6.902344 -4.417969 5.164062 -4.808594 L 3.539062 -5.164062 C 2.550781 -5.375 2.242188 -5.75 2.242188 -6.285156 C 2.242188 -7.03125 2.875 -7.390625 3.929688 -7.390625 C 5.117188 -7.390625 5.75 -6.902344 5.910156 -5.945312 L 7.390625 -6.007812 C 7.144531 -7.761719 5.847656 -8.574219 3.980469 -8.574219 C 1.917969 -8.574219 0.859375 -7.617188 0.859375 -6.15625 C 0.859375 -4.96875 1.558594 -4.222656 3.183594 -3.882812 L 4.871094 -3.523438 C 5.75 -3.34375 6.203125 -2.972656 6.203125 -2.304688 C 6.203125 -1.511719 5.554688 -0.992188 4.191406 -0.992188 C 2.90625 -0.992188 2.207031 -1.476562 2.0625 -2.648438 L 0.648438 -2.582031 C 0.84375 -0.714844 2.03125 0.210938 4.125 0.210938 Z M 4.125 0.210938 "/></g></g><g style="fill:#ffffff;fill-opacity:1;"><g transform="translate(143.956839, 17.533455)"><path style="stroke:none" d=""/></g></g><g style="fill:#ffffff;fill-opacity:1;"><g transform="translate(148.340474, 17.533455)"><path style="stroke:none" d="M 2.875 3.3125 L 2.875 -12.132812 L 1.378906 -12.132812 L 1.378906 3.3125 Z M 2.875 3.3125 "/></g></g><g style="fill:#ffffff;fill-opacity:1;"><g transform="translate(152.594225, 17.533455)"><path style="stroke:none" d=""/></g></g><g style="fill:#ffffff;fill-opacity:1;"><g transform="translate(156.977859, 17.533455)"><path style="stroke:none" d="M 7.648438 -11.5625 L 6.496094 -11.5625 L 0.875 -4.140625 L 0.875 -2.726562 L 6.136719 -2.726562 L 6.136719 0 L 7.648438 0 L 7.648438 -2.726562 L 9.515625 -2.726562 L 9.515625 -4.042969 L 7.648438 -4.042969 Z M 2.417969 -4.042969 L 6.105469 -8.898438 L 6.136719 -8.898438 L 6.136719 -4.042969 Z M 2.417969 -4.042969 "/></g></g><g style="fill:#ffffff;fill-opacity:1;"><g transform="translate(167.368706, 17.533455)"><path style="stroke:none" d=""/></g></g><g style="fill:#ffffff;fill-opacity:1;"><g transform="translate(171.75234, 17.533455)"><path style="stroke:none" d="M 7.566406 -2.726562 L 7.179688 -1.574219 L 6.789062 -2.726562 L 3.507812 -11.5625 L 1.378906 -11.5625 L 1.378906 0 L 2.761719 0 L 2.761719 -7.664062 L 2.710938 -9.761719 L 3.476562 -7.941406 L 6.464844 0 L 7.890625 0 L 10.652344 -7.679688 L 11.480469 -9.742188 L 11.449219 -7.664062 L 11.449219 0 L 12.828125 0 L 12.828125 -11.5625 L 10.734375 -11.5625 Z M 7.566406 -2.726562 "/></g></g><g style="fill:#ffffff;fill-opacity:1;"><g transform="translate(185.958573, 17.533455)"><path style="stroke:none" d="M 4.839844 0.210938 C 7.195312 0.210938 8.882812 -1.625 8.882812 -4.253906 C 8.882812 -6.917969 7.226562 -8.589844 4.886719 -8.589844 C 2.484375 -8.589844 0.8125 -6.886719 0.8125 -4.191406 C 0.8125 -1.558594 2.4375 0.210938 4.839844 0.210938 Z M 4.839844 -1.039062 C 3.265625 -1.039062 2.304688 -2.289062 2.304688 -4.191406 C 2.304688 -6.089844 3.246094 -7.339844 4.839844 -7.339844 C 6.464844 -7.339844 7.390625 -6.15625 7.390625 -4.253906 C 7.390625 -2.355469 6.464844 -1.039062 4.839844 -1.039062 Z M 4.839844 -1.039062 "/></g></g><g style="fill:#ffffff;fill-opacity:1;"><g transform="translate(195.651287, 17.533455)"><path style="stroke:none" d="M 5.503906 -8.589844 C 4.269531 -8.589844 3.265625 -8.085938 2.695312 -7.195312 L 2.695312 -8.378906 L 1.300781 -8.378906 L 1.300781 0 L 2.792969 0 L 2.792969 -4.660156 C 2.792969 -6.660156 4.027344 -7.292969 5.179688 -7.292969 C 6.316406 -7.292969 6.851562 -6.675781 6.851562 -5.523438 L 6.851562 0 L 8.347656 0 L 8.347656 -5.8125 C 8.347656 -7.582031 7.257812 -8.589844 5.503906 -8.589844 Z M 5.503906 -8.589844 "/></g></g><g style="fill:#ffffff;fill-opacity:1;"><g transform="translate(205.295286, 17.533455)"><path style="stroke:none" d="M 5.308594 -7.226562 L 5.308594 -8.378906 L 3.394531 -8.316406 L 3.394531 -10.945312 L 1.898438 -10.945312 L 1.898438 -8.332031 L 0.648438 -8.378906 L 0.648438 -7.226562 L 1.898438 -7.292969 L 1.898438 -1.867188 C 1.898438 -0.570312 2.46875 0 3.769531 0 L 5.292969 0 L 5.292969 -1.25 L 4.207031 -1.25 C 3.589844 -1.25 3.394531 -1.445312 3.394531 -2.0625 L 3.394531 -7.292969 Z M 5.308594 -7.226562 "/></g></g><g style="fill:#ffffff;fill-opacity:1;"><g transform="translate(211.091429, 17.533455)"><path style="stroke:none" d="M 5.503906 -8.589844 C 4.335938 -8.589844 3.378906 -8.136719 2.792969 -7.324219 L 2.792969 -11.5625 L 1.300781 -11.5625 L 1.300781 0 L 2.792969 0 L 2.792969 -4.660156 C 2.792969 -6.660156 4.027344 -7.292969 5.179688 -7.292969 C 6.316406 -7.292969 6.851562 -6.675781 6.851562 -5.523438 L 6.851562 0 L 8.347656 0 L 8.347656 -5.8125 C 8.347656 -7.582031 7.257812 -8.589844 5.503906 -8.589844 Z M 5.503906 -8.589844 "/></g></g><g style="fill:#ffffff;fill-opacity:1;"><g transform="translate(220.735429, 17.533455)"><path style="stroke:none" d="M 4.125 0.210938 C 6.332031 0.210938 7.632812 -0.796875 7.632812 -2.4375 C 7.632812 -3.652344 6.902344 -4.417969 5.164062 -4.808594 L 3.539062 -5.164062 C 2.550781 -5.375 2.242188 -5.75 2.242188 -6.285156 C 2.242188 -7.03125 2.875 -7.390625 3.929688 -7.390625 C 5.117188 -7.390625 5.75 -6.902344 5.910156 -5.945312 L 7.390625 -6.007812 C 7.144531 -7.761719 5.847656 -8.574219 3.980469 -8.574219 C 1.917969 -8.574219 0.859375 -7.617188 0.859375 -6.15625 C 0.859375 -4.96875 1.558594 -4.222656 3.183594 -3.882812 L 4.871094 -3.523438 C 5.75 -3.34375 6.203125 -2.972656 6.203125 -2.304688 C 6.203125 -1.511719 5.554688 -0.992188 4.191406 -0.992188 C 2.90625 -0.992188 2.207031 -1.476562 2.0625 -2.648438 L 0.648438 -2.582031 C 0.84375 -0.714844 2.03125 0.210938 4.125 0.210938 Z M 4.125 0.210938 "/></g></g></g></g></g></svg>