<svg xmlns="http://www.w3.org/2000/svg" xmlns:xlink="http://www.w3.org/1999/xlink" width="500" zoomAndPan="magnify" viewBox="0 0 375 225" height="300" preserveAspectRatio="xMidYMid meet" version="1.2"><defs><clipPath id="93c159d362"><path d="M 60.300781 31.703125 L 132.734375 31.703125 L 132.734375 103.296875 L 60.300781 103.296875 Z M 60.300781 31.703125 "/></clipPath><clipPath id="2d23ff2593"><path d="M 66.964844 31.703125 L 125.910156 31.703125 C 129.59375 31.703125 132.578125 34.6875 132.578125 38.367188 L 132.578125 96.632812 C 132.578125 100.3125 129.59375 103.296875 125.910156 103.296875 L 66.964844 103.296875 C 63.285156 103.296875 60.300781 100.3125 60.300781 96.632812 L 60.300781 38.367188 C 60.300781 34.6875 63.285156 31.703125 66.964844 31.703125 Z M 66.964844 31.703125 "/></clipPath><clipPath id="81165ef98d"><path d="M 0.300781 0.703125 L 72.71875 0.703125 L 72.71875 72.296875 L 0.300781 72.296875 Z M 0.300781 0.703125 "/></clipPath><clipPath id="1a14b27727"><path d="M 6.964844 0.703125 L 65.910156 0.703125 C 69.59375 0.703125 72.578125 3.6875 72.578125 7.367188 L 72.578125 65.632812 C 72.578125 69.3125 69.59375 72.296875 65.910156 72.296875 L 6.964844 72.296875 C 3.285156 72.296875 0.300781 69.3125 0.300781 65.632812 L 0.300781 7.367188 C 0.300781 3.6875 3.285156 0.703125 6.964844 0.703125 Z M 6.964844 0.703125 "/></clipPath><clipPath id="8bb8a62340"><rect x="0" width="73" y="0" height="73"/></clipPath><clipPath id="a8a3903291"><path d="M 60.300781 121.703125 L 132.734375 121.703125 L 132.734375 193.296875 L 60.300781 193.296875 Z M 60.300781 121.703125 "/></clipPath><clipPath id="85e17dc177"><path d="M 66.964844 121.703125 L 125.910156 121.703125 C 129.59375 121.703125 132.578125 124.6875 132.578125 128.367188 L 132.578125 186.632812 C 132.578125 190.3125 129.59375 193.296875 125.910156 193.296875 L 66.964844 193.296875 C 63.285156 193.296875 60.300781 190.3125 60.300781 186.632812 L 60.300781 128.367188 C 60.300781 124.6875 63.285156 121.703125 66.964844 121.703125 Z M 66.964844 121.703125 "/></clipPath><clipPath id="0a0476d713"><path d="M 0.300781 0.703125 L 72.71875 0.703125 L 72.71875 72.296875 L 0.300781 72.296875 Z M 0.300781 0.703125 "/></clipPath><clipPath id="57a4dd0563"><path d="M 6.964844 0.703125 L 65.910156 0.703125 C 69.59375 0.703125 72.578125 3.6875 72.578125 7.367188 L 72.578125 65.632812 C 72.578125 69.3125 69.59375 72.296875 65.910156 72.296875 L 6.964844 72.296875 C 3.285156 72.296875 0.300781 69.3125 0.300781 65.632812 L 0.300781 7.367188 C 0.300781 3.6875 3.285156 0.703125 6.964844 0.703125 Z M 6.964844 0.703125 "/></clipPath><clipPath id="c05d31961e"><rect x="0" width="73" y="0" height="73"/></clipPath><clipPath id="fb78b2df3a"><path d="M 77.136719 131.542969 L 115.382812 131.542969 L 115.382812 183.292969 L 77.136719 183.292969 Z M 77.136719 131.542969 "/></clipPath><clipPath id="16cd5fb732"><path d="M 151.328125 31.703125 L 223.761719 31.703125 L 223.761719 103.296875 L 151.328125 103.296875 Z M 151.328125 31.703125 "/></clipPath><clipPath id="785bbf88f7"><path d="M 157.992188 31.703125 L 216.9375 31.703125 C 220.621094 31.703125 223.605469 34.6875 223.605469 38.367188 L 223.605469 96.632812 C 223.605469 100.3125 220.621094 103.296875 216.9375 103.296875 L 157.992188 103.296875 C 154.3125 103.296875 151.328125 100.3125 151.328125 96.632812 L 151.328125 38.367188 C 151.328125 34.6875 154.3125 31.703125 157.992188 31.703125 Z M 157.992188 31.703125 "/></clipPath><clipPath id="df975efa0a"><path d="M 0.328125 0.703125 L 72.679688 0.703125 L 72.679688 72.296875 L 0.328125 72.296875 Z M 0.328125 0.703125 "/></clipPath><clipPath id="c13e16fa57"><path d="M 6.992188 0.703125 L 65.9375 0.703125 C 69.621094 0.703125 72.605469 3.6875 72.605469 7.367188 L 72.605469 65.632812 C 72.605469 69.3125 69.621094 72.296875 65.9375 72.296875 L 6.992188 72.296875 C 3.3125 72.296875 0.328125 69.3125 0.328125 65.632812 L 0.328125 7.367188 C 0.328125 3.6875 3.3125 0.703125 6.992188 0.703125 Z M 6.992188 0.703125 "/></clipPath><clipPath id="0a79cccae6"><rect x="0" width="73" y="0" height="73"/></clipPath><clipPath id="b296365710"><path d="M 151.328125 121.703125 L 223.761719 121.703125 L 223.761719 193.296875 L 151.328125 193.296875 Z M 151.328125 121.703125 "/></clipPath><clipPath id="4e3aee6a19"><path d="M 157.992188 121.703125 L 216.9375 121.703125 C 220.621094 121.703125 223.605469 124.6875 223.605469 128.367188 L 223.605469 186.632812 C 223.605469 190.3125 220.621094 193.296875 216.9375 193.296875 L 157.992188 193.296875 C 154.3125 193.296875 151.328125 190.3125 151.328125 186.632812 L 151.328125 128.367188 C 151.328125 124.6875 154.3125 121.703125 157.992188 121.703125 Z M 157.992188 121.703125 "/></clipPath><clipPath id="0cf997d55b"><path d="M 0.328125 0.703125 L 72.679688 0.703125 L 72.679688 72.296875 L 0.328125 72.296875 Z M 0.328125 0.703125 "/></clipPath><clipPath id="dcb9dc9ba9"><path d="M 6.992188 0.703125 L 65.9375 0.703125 C 69.621094 0.703125 72.605469 3.6875 72.605469 7.367188 L 72.605469 65.632812 C 72.605469 69.3125 69.621094 72.296875 65.9375 72.296875 L 6.992188 72.296875 C 3.3125 72.296875 0.328125 69.3125 0.328125 65.632812 L 0.328125 7.367188 C 0.328125 3.6875 3.3125 0.703125 6.992188 0.703125 Z M 6.992188 0.703125 "/></clipPath><clipPath id="adb750d96d"><rect x="0" width="73" y="0" height="73"/></clipPath><clipPath id="63a6b0205f"><path d="M 242.421875 31.703125 L 314.855469 31.703125 L 314.855469 103.296875 L 242.421875 103.296875 Z M 242.421875 31.703125 "/></clipPath><clipPath id="2ab7748961"><path d="M 249.089844 31.703125 L 308.035156 31.703125 C 311.714844 31.703125 314.699219 34.6875 314.699219 38.367188 L 314.699219 96.632812 C 314.699219 100.3125 311.714844 103.296875 308.035156 103.296875 L 249.089844 103.296875 C 245.40625 103.296875 242.421875 100.3125 242.421875 96.632812 L 242.421875 38.367188 C 242.421875 34.6875 245.40625 31.703125 249.089844 31.703125 Z M 249.089844 31.703125 "/></clipPath><clipPath id="23239b5f8d"><path d="M 0.421875 0.703125 L 72.855469 0.703125 L 72.855469 72.296875 L 0.421875 72.296875 Z M 0.421875 0.703125 "/></clipPath><clipPath id="4a52e472a2"><path d="M 7.089844 0.703125 L 66.035156 0.703125 C 69.714844 0.703125 72.699219 3.6875 72.699219 7.367188 L 72.699219 65.632812 C 72.699219 69.3125 69.714844 72.296875 66.035156 72.296875 L 7.089844 72.296875 C 3.40625 72.296875 0.421875 69.3125 0.421875 65.632812 L 0.421875 7.367188 C 0.421875 3.6875 3.40625 0.703125 7.089844 0.703125 Z M 7.089844 0.703125 "/></clipPath><clipPath id="70f9ee9be7"><rect x="0" width="73" y="0" height="73"/></clipPath><clipPath id="91215363cc"><path d="M 242.421875 121.703125 L 314.855469 121.703125 L 314.855469 193.296875 L 242.421875 193.296875 Z M 242.421875 121.703125 "/></clipPath><clipPath id="4f8329328f"><path d="M 249.089844 121.703125 L 308.035156 121.703125 C 311.714844 121.703125 314.699219 124.6875 314.699219 128.367188 L 314.699219 186.632812 C 314.699219 190.3125 311.714844 193.296875 308.035156 193.296875 L 249.089844 193.296875 C 245.40625 193.296875 242.421875 190.3125 242.421875 186.632812 L 242.421875 128.367188 C 242.421875 124.6875 245.40625 121.703125 249.089844 121.703125 Z M 249.089844 121.703125 "/></clipPath><clipPath id="36cc209836"><path d="M 0.421875 0.703125 L 72.855469 0.703125 L 72.855469 72.296875 L 0.421875 72.296875 Z M 0.421875 0.703125 "/></clipPath><clipPath id="269b6fe67a"><path d="M 7.089844 0.703125 L 66.035156 0.703125 C 69.714844 0.703125 72.699219 3.6875 72.699219 7.367188 L 72.699219 65.632812 C 72.699219 69.3125 69.714844 72.296875 66.035156 72.296875 L 7.089844 72.296875 C 3.40625 72.296875 0.421875 69.3125 0.421875 65.632812 L 0.421875 7.367188 C 0.421875 3.6875 3.40625 0.703125 7.089844 0.703125 Z M 7.089844 0.703125 "/></clipPath><clipPath id="74da6d19b6"><rect x="0" width="73" y="0" height="73"/></clipPath><clipPath id="52b6c286f2"><path d="M 165.28125 45.28125 L 209.53125 45.28125 L 209.53125 89.53125 L 165.28125 89.53125 Z M 165.28125 45.28125 "/></clipPath><clipPath id="8ea22bf7f8"><path d="M 254.355469 132.070312 L 306.105469 132.070312 L 306.105469 183 L 254.355469 183 Z M 254.355469 132.070312 "/></clipPath><clipPath id="e9c7f6397e"><path d="M 84 40.019531 L 99 40.019531 L 99 51 L 84 51 Z M 84 40.019531 "/></clipPath><clipPath id="c67988806d"><path d="M 74 85 L 82 85 L 82 94.769531 L 74 94.769531 Z M 74 85 "/></clipPath><clipPath id="d9ded413fa"><path d="M 86 81 L 95 81 L 95 94.769531 L 86 94.769531 Z M 86 81 "/></clipPath><clipPath id="557d35114b"><path d="M 98 73 L 107 73 L 107 94.769531 L 98 94.769531 Z M 98 73 "/></clipPath><clipPath id="8db85e440a"><path d="M 110 71 L 119 71 L 119 94.769531 L 110 94.769531 Z M 110 71 "/></clipPath><clipPath id="1afbddbf16"><path d="M 163.472656 131.902344 L 211.472656 131.902344 L 211.472656 183.652344 L 163.472656 183.652344 Z M 163.472656 131.902344 "/></clipPath><clipPath id="5708503145"><path d="M 268 80 L 289 80 L 289 92.152344 L 268 92.152344 Z M 268 80 "/></clipPath><clipPath id="38f817e6c2"><path d="M 275 42.652344 L 282 42.652344 L 282 51 L 275 51 Z M 275 42.652344 "/></clipPath><clipPath id="7471757693"><path d="M 262 42.652344 L 269 42.652344 L 269 51 L 262 51 Z M 262 42.652344 "/></clipPath><clipPath id="a9108da39d"><path d="M 288 42.652344 L 295 42.652344 L 295 51 L 288 51 Z M 288 42.652344 "/></clipPath><clipPath id="61c53b684e"><path d="M 253.710938 50 L 303.210938 50 L 303.210938 77 L 253.710938 77 Z M 253.710938 50 "/></clipPath></defs><g id="49c3dba2c7"><g clip-rule="nonzero" clip-path="url(#93c159d362)"><g clip-rule="nonzero" clip-path="url(#2d23ff2593)"><g transform="matrix(1,0,0,1,60,31)"><g clip-path="url(#8bb8a62340)"><g clip-rule="nonzero" clip-path="url(#81165ef98d)"><g clip-rule="nonzero" clip-path="url(#1a14b27727)"><path style=" stroke:none;fill-rule:nonzero;fill:#1f201d;fill-opacity:1;" d="M 0.300781 0.703125 L 72.453125 0.703125 L 72.453125 72.296875 L 0.300781 72.296875 Z M 0.300781 0.703125 "/></g></g></g></g></g></g><g clip-rule="nonzero" clip-path="url(#a8a3903291)"><g clip-rule="nonzero" clip-path="url(#85e17dc177)"><g transform="matrix(1,0,0,1,60,121)"><g clip-path="url(#c05d31961e)"><g clip-rule="nonzero" clip-path="url(#0a0476d713)"><g clip-rule="nonzero" clip-path="url(#57a4dd0563)"><path style=" stroke:none;fill-rule:nonzero;fill:#1f201d;fill-opacity:1;" d="M 0.300781 0.703125 L 72.453125 0.703125 L 72.453125 72.296875 L 0.300781 72.296875 Z M 0.300781 0.703125 "/></g></g></g></g></g></g><g clip-rule="nonzero" clip-path="url(#fb78b2df3a)"><path style=" stroke:none;fill-rule:nonzero;fill:#ffffff;fill-opacity:1;" d="M 104.804688 164.464844 L 102.570312 167.289062 C 102.351562 167.5625 102.011719 167.726562 101.660156 167.726562 C 101.566406 167.726562 101.476562 167.714844 101.386719 167.695312 L 97.890625 166.835938 C 97.652344 166.777344 97.410156 166.746094 97.164062 166.746094 C 96.832031 166.746094 96.5 166.800781 96.183594 166.910156 L 92.777344 168.078125 C 92.65625 168.121094 92.53125 168.140625 92.402344 168.140625 C 92.085938 168.140625 91.777344 168.007812 91.5625 167.777344 L 89.082031 165.164062 C 88.683594 164.742188 88.171875 164.445312 87.609375 164.308594 L 84.109375 163.449219 C 83.671875 163.339844 83.332031 162.984375 83.25 162.539062 L 82.578125 159 C 82.46875 158.429688 82.199219 157.902344 81.800781 157.480469 L 79.324219 154.867188 C 79.011719 154.539062 78.921875 154.054688 79.089844 153.636719 L 80.4375 150.296875 C 80.65625 149.757812 80.714844 149.171875 80.605469 148.597656 L 79.933594 145.0625 C 79.851562 144.617188 80.035156 144.160156 80.40625 143.898438 L 83.34375 141.820312 C 83.820312 141.484375 84.183594 141.019531 84.402344 140.480469 L 85.75 137.140625 C 85.921875 136.722656 86.320312 136.4375 86.773438 136.417969 L 90.371094 136.257812 C 90.953125 136.230469 91.511719 136.039062 91.984375 135.703125 L 94.925781 133.625 C 95.121094 133.484375 95.351562 133.414062 95.59375 133.414062 C 95.800781 133.414062 96 133.464844 96.175781 133.570312 L 99.289062 135.378906 C 99.75 135.648438 100.277344 135.789062 100.8125 135.789062 C 100.859375 135.789062 100.902344 135.789062 100.949219 135.785156 L 104.542969 135.625 C 104.5625 135.625 104.578125 135.625 104.597656 135.625 C 105.027344 135.625 105.433594 135.871094 105.628906 136.253906 L 107.269531 139.460938 C 107.535156 139.980469 107.941406 140.40625 108.441406 140.699219 L 111.554688 142.507812 C 111.945312 142.738281 112.171875 143.175781 112.125 143.625 L 111.773438 147.207031 C 111.714844 147.789062 111.828125 148.367188 112.089844 148.886719 L 113.730469 152.089844 C 113.9375 152.492188 113.890625 152.984375 113.609375 153.335938 L 111.375 156.160156 C 111.011719 156.617188 110.792969 157.164062 110.734375 157.746094 L 110.382812 161.328125 C 110.335938 161.777344 110.03125 162.164062 109.605469 162.308594 L 106.199219 163.476562 C 105.648438 163.667969 105.167969 164.007812 104.804688 164.464844 Z M 97.574219 168.683594 L 100.9375 169.511719 C 101.175781 169.570312 101.417969 169.597656 101.660156 169.597656 C 102.109375 169.597656 102.566406 169.496094 102.972656 169.300781 C 103.386719 169.101562 103.753906 168.808594 104.039062 168.449219 L 106.273438 165.625 C 106.363281 165.511719 106.476562 165.414062 106.601562 165.34375 L 112.40625 176.25 L 107.523438 176.546875 C 107.25 176.5625 107 176.695312 106.835938 176.914062 L 103.859375 180.796875 L 97.492188 168.835938 Z M 87.160156 166.125 C 87.378906 166.175781 87.570312 166.292969 87.726562 166.453125 L 90.203125 169.066406 C 90.769531 169.667969 91.574219 170.011719 92.40625 170.011719 C 92.738281 170.011719 93.066406 169.957031 93.382812 169.847656 L 95.15625 169.242188 L 89.003906 180.796875 L 86.027344 176.914062 C 85.863281 176.695312 85.613281 176.5625 85.34375 176.546875 L 80.457031 176.25 L 86 165.839844 Z M 112.246094 161.511719 L 112.597656 157.929688 C 112.621094 157.707031 112.703125 157.496094 112.84375 157.324219 L 115.078125 154.5 C 115.808594 153.570312 115.9375 152.292969 115.398438 151.238281 L 113.757812 148.03125 C 113.65625 147.835938 113.613281 147.613281 113.636719 147.390625 L 113.988281 143.808594 C 114.105469 142.632812 113.519531 141.484375 112.496094 140.890625 L 109.382812 139.082031 C 109.191406 138.96875 109.035156 138.804688 108.933594 138.609375 L 107.292969 135.402344 C 107.039062 134.90625 106.652344 134.488281 106.175781 134.199219 C 105.699219 133.90625 105.152344 133.753906 104.59375 133.753906 C 104.550781 133.753906 104.503906 133.753906 104.460938 133.757812 L 100.863281 133.917969 C 100.847656 133.917969 100.828125 133.917969 100.8125 133.917969 C 100.609375 133.917969 100.40625 133.863281 100.230469 133.761719 L 97.117188 131.949219 C 96.65625 131.683594 96.128906 131.542969 95.59375 131.542969 C 94.964844 131.542969 94.359375 131.734375 93.84375 132.097656 L 90.90625 134.175781 C 90.722656 134.304688 90.511719 134.378906 90.289062 134.386719 L 86.691406 134.550781 C 85.507812 134.601562 84.457031 135.34375 84.015625 136.441406 L 82.667969 139.78125 C 82.585938 139.988281 82.445312 140.164062 82.261719 140.292969 L 79.324219 142.371094 C 78.359375 143.054688 77.875 144.246094 78.097656 145.410156 L 78.765625 148.949219 C 78.808594 149.167969 78.785156 149.390625 78.703125 149.597656 L 77.355469 152.9375 C 76.910156 154.03125 77.152344 155.296875 77.964844 156.15625 L 80.441406 158.769531 C 80.59375 158.929688 80.699219 159.132812 80.738281 159.347656 L 81.410156 162.886719 C 81.632812 164.050781 82.515625 164.984375 83.664062 165.265625 L 84.125 165.378906 L 78.121094 176.652344 C 77.972656 176.9375 77.976562 177.269531 78.132812 177.550781 C 78.289062 177.828125 78.570312 178.007812 78.890625 178.027344 L 84.800781 178.390625 L 88.402344 183.089844 C 88.578125 183.320312 88.859375 183.457031 89.148438 183.457031 C 89.171875 183.457031 89.199219 183.457031 89.222656 183.453125 C 89.542969 183.429688 89.824219 183.242188 89.972656 182.960938 L 96.433594 170.828125 L 102.890625 182.960938 C 103.042969 183.242188 103.320312 183.429688 103.640625 183.453125 C 103.664062 183.457031 103.691406 183.457031 103.71875 183.457031 C 104.007812 183.457031 104.285156 183.320312 104.460938 183.089844 L 108.0625 178.390625 L 113.972656 178.027344 C 114.292969 178.007812 114.578125 177.828125 114.734375 177.550781 C 114.890625 177.269531 114.894531 176.9375 114.742188 176.652344 L 108.382812 164.707031 L 110.210938 164.082031 C 111.332031 163.695312 112.128906 162.6875 112.246094 161.511719 "/></g><path style=" stroke:none;fill-rule:nonzero;fill:#ffffff;fill-opacity:1;" d="M 96.433594 161.570312 C 90.761719 161.570312 86.148438 156.957031 86.148438 151.289062 C 86.148438 145.617188 90.761719 141.003906 96.433594 141.003906 C 102.101562 141.003906 106.714844 145.617188 106.714844 151.289062 C 106.714844 156.957031 102.101562 161.570312 96.433594 161.570312 Z M 96.433594 139.132812 C 89.730469 139.132812 84.277344 144.585938 84.277344 151.289062 C 84.277344 157.988281 89.730469 163.441406 96.433594 163.441406 C 103.132812 163.441406 108.585938 157.988281 108.585938 151.289062 C 108.585938 144.585938 103.132812 139.132812 96.433594 139.132812 "/><path style=" stroke:none;fill-rule:nonzero;fill:#ffffff;fill-opacity:1;" d="M 102.097656 146.589844 C 102.054688 146.546875 101.996094 146.523438 101.933594 146.523438 C 101.875 146.523438 101.816406 146.546875 101.773438 146.589844 L 94.863281 153.5 L 91.09375 149.730469 C 91.046875 149.6875 90.988281 149.664062 90.929688 149.664062 C 90.871094 149.664062 90.8125 149.6875 90.769531 149.730469 L 89.769531 150.730469 C 89.726562 150.773438 89.703125 150.832031 89.703125 150.894531 C 89.703125 150.953125 89.726562 151.011719 89.769531 151.054688 L 94.699219 155.984375 C 94.742188 156.027344 94.800781 156.054688 94.863281 156.054688 C 94.921875 156.054688 94.980469 156.027344 95.023438 155.984375 L 103.097656 147.914062 C 103.1875 147.824219 103.1875 147.679688 103.097656 147.589844 L 102.097656 146.589844 "/><g clip-rule="nonzero" clip-path="url(#16cd5fb732)"><g clip-rule="nonzero" clip-path="url(#785bbf88f7)"><g transform="matrix(1,0,0,1,151,31)"><g clip-path="url(#0a79cccae6)"><g clip-rule="nonzero" clip-path="url(#df975efa0a)"><g clip-rule="nonzero" clip-path="url(#c13e16fa57)"><path style=" stroke:none;fill-rule:nonzero;fill:#1f201d;fill-opacity:1;" d="M 0.328125 0.703125 L 72.480469 0.703125 L 72.480469 72.296875 L 0.328125 72.296875 Z M 0.328125 0.703125 "/></g></g></g></g></g></g><g clip-rule="nonzero" clip-path="url(#b296365710)"><g clip-rule="nonzero" clip-path="url(#4e3aee6a19)"><g transform="matrix(1,0,0,1,151,121)"><g clip-path="url(#adb750d96d)"><g clip-rule="nonzero" clip-path="url(#0cf997d55b)"><g clip-rule="nonzero" clip-path="url(#dcb9dc9ba9)"><path style=" stroke:none;fill-rule:nonzero;fill:#1f201d;fill-opacity:1;" d="M 0.328125 0.703125 L 72.480469 0.703125 L 72.480469 72.296875 L 0.328125 72.296875 Z M 0.328125 0.703125 "/></g></g></g></g></g></g><g clip-rule="nonzero" clip-path="url(#63a6b0205f)"><g clip-rule="nonzero" clip-path="url(#2ab7748961)"><g transform="matrix(1,0,0,1,242,31)"><g clip-path="url(#70f9ee9be7)"><g clip-rule="nonzero" clip-path="url(#23239b5f8d)"><g clip-rule="nonzero" clip-path="url(#4a52e472a2)"><path style=" stroke:none;fill-rule:nonzero;fill:#1f201d;fill-opacity:1;" d="M 0.421875 0.703125 L 72.578125 0.703125 L 72.578125 72.296875 L 0.421875 72.296875 Z M 0.421875 0.703125 "/></g></g></g></g></g></g><g clip-rule="nonzero" clip-path="url(#91215363cc)"><g clip-rule="nonzero" clip-path="url(#4f8329328f)"><g transform="matrix(1,0,0,1,242,121)"><g clip-path="url(#74da6d19b6)"><g clip-rule="nonzero" clip-path="url(#36cc209836)"><g clip-rule="nonzero" clip-path="url(#269b6fe67a)"><path style=" stroke:none;fill-rule:nonzero;fill:#1f201d;fill-opacity:1;" d="M 0.421875 0.703125 L 72.578125 0.703125 L 72.578125 72.296875 L 0.421875 72.296875 Z M 0.421875 0.703125 "/></g></g></g></g></g></g><g clip-rule="nonzero" clip-path="url(#52b6c286f2)"><path style=" stroke:none;fill-rule:nonzero;fill:#ffffff;fill-opacity:1;" d="M 187.496094 45.28125 C 175.238281 45.28125 165.28125 55.238281 165.28125 67.496094 C 165.28125 79.75 175.238281 89.707031 187.496094 89.707031 C 199.75 89.707031 209.707031 79.75 209.707031 67.496094 C 209.707031 55.238281 199.75 45.28125 187.496094 45.28125 Z M 182.652344 47.886719 C 181.414062 49.03125 180.339844 50.585938 179.449219 52.414062 C 178.8125 53.71875 178.261719 55.1875 177.808594 56.765625 C 175.171875 56.359375 173.308594 55.757812 171.671875 54.9375 C 174.40625 51.492188 178.242188 48.96875 182.652344 47.886719 Z M 192.339844 47.886719 C 196.746094 48.96875 200.582031 51.492188 203.320312 54.9375 C 201.679688 55.757812 199.816406 56.359375 197.179688 56.765625 C 196.730469 55.1875 196.175781 53.71875 195.539062 52.414062 C 194.648438 50.585938 193.574219 49.03125 192.339844 47.886719 Z M 186.484375 47.949219 L 186.484375 57.367188 C 183.875 57.320312 181.664062 57.226562 179.828125 57.035156 C 180.234375 55.667969 180.722656 54.40625 181.261719 53.296875 C 182.738281 50.273438 184.597656 48.4375 186.484375 47.949219 Z M 188.503906 47.949219 C 190.394531 48.4375 192.25 50.273438 193.726562 53.296875 C 194.269531 54.40625 194.757812 55.667969 195.164062 57.035156 C 193.328125 57.226562 191.117188 57.320312 188.503906 57.367188 Z M 170.488281 56.609375 C 172.34375 57.570312 174.445312 58.261719 177.320312 58.722656 C 176.789062 61.121094 176.46875 63.730469 176.40625 66.484375 L 167.316406 66.484375 C 167.496094 62.855469 168.644531 59.488281 170.488281 56.609375 Z M 204.5 56.609375 C 206.347656 59.488281 207.496094 62.855469 207.671875 66.484375 L 198.585938 66.484375 C 198.523438 63.730469 198.203125 61.121094 197.671875 58.722656 C 200.546875 58.261719 202.648438 57.570312 204.5 56.609375 Z M 179.324219 58.992188 C 181.316406 59.214844 183.6875 59.351562 186.484375 59.402344 L 186.484375 66.484375 L 178.421875 66.484375 C 178.488281 63.808594 178.800781 61.28125 179.324219 58.992188 Z M 195.667969 58.992188 C 196.1875 61.28125 196.5 63.808594 196.566406 66.484375 L 188.503906 66.484375 L 188.503906 59.402344 C 191.300781 59.351562 193.671875 59.214844 195.667969 58.992188 Z M 167.316406 68.503906 L 176.40625 68.503906 C 176.46875 71.257812 176.789062 73.875 177.320312 76.265625 C 174.445312 76.726562 172.34375 77.421875 170.488281 78.378906 C 168.644531 75.503906 167.496094 72.136719 167.316406 68.503906 Z M 178.421875 68.503906 L 186.484375 68.503906 L 186.484375 75.589844 C 183.695312 75.640625 181.332031 75.78125 179.339844 76 C 178.816406 73.710938 178.488281 71.183594 178.421875 68.503906 Z M 188.503906 68.503906 L 196.566406 68.503906 C 196.5 71.183594 196.171875 73.710938 195.652344 76 C 193.660156 75.78125 191.296875 75.640625 188.503906 75.589844 Z M 198.585938 68.503906 L 207.671875 68.503906 C 207.496094 72.136719 206.347656 75.503906 204.5 78.378906 C 202.648438 77.421875 200.546875 76.726562 197.671875 76.265625 C 198.203125 73.875 198.523438 71.257812 198.585938 68.503906 Z M 186.484375 77.625 L 186.484375 87.058594 C 184.597656 86.566406 182.738281 84.703125 181.261719 81.679688 C 180.726562 80.574219 180.25 79.332031 179.84375 77.96875 C 181.675781 77.785156 183.882812 77.671875 186.484375 77.625 Z M 188.503906 77.625 C 191.109375 77.671875 193.3125 77.785156 195.144531 77.96875 C 194.742188 79.332031 194.265625 80.574219 193.726562 81.679688 C 192.25 84.703125 190.394531 86.566406 188.503906 87.058594 Z M 177.808594 78.222656 C 178.261719 79.800781 178.8125 81.253906 179.449219 82.5625 C 180.339844 84.386719 181.414062 85.953125 182.652344 87.105469 C 178.242188 86.019531 174.40625 83.496094 171.671875 80.054688 C 173.308594 79.234375 175.171875 78.625 177.808594 78.222656 Z M 197.179688 78.222656 C 199.816406 78.625 201.679688 79.234375 203.320312 80.054688 C 200.582031 83.496094 196.746094 86.019531 192.339844 87.105469 C 193.574219 85.953125 194.648438 84.386719 195.539062 82.5625 C 196.179688 81.253906 196.730469 79.800781 197.179688 78.222656 Z M 197.179688 78.222656 "/></g><g clip-rule="nonzero" clip-path="url(#8ea22bf7f8)"><path style=" stroke:none;fill-rule:nonzero;fill:#ffffff;fill-opacity:1;" d="M 275.28125 168.769531 C 266.59375 168.769531 259.523438 161.699219 259.523438 153.011719 C 259.523438 144.320312 266.59375 137.253906 275.28125 137.253906 C 283.972656 137.253906 291.042969 144.320312 291.042969 153.011719 C 291.042969 161.699219 283.972656 168.769531 275.28125 168.769531 Z M 306.039062 177.53125 L 294.359375 165.851562 C 294.023438 165.515625 293.476562 165.515625 293.140625 165.851562 L 292.316406 166.679688 L 291.65625 166.023438 C 294.503906 162.445312 296.210938 157.925781 296.210938 153.011719 C 296.210938 141.46875 286.824219 132.082031 275.28125 132.082031 C 263.742188 132.082031 254.355469 141.46875 254.355469 153.011719 C 254.355469 164.550781 263.742188 173.941406 275.28125 173.941406 C 280.757812 173.941406 285.746094 171.824219 289.480469 168.371094 L 290.050781 168.941406 L 289.222656 169.769531 C 289.0625 169.933594 288.972656 170.152344 288.972656 170.378906 C 288.972656 170.609375 289.0625 170.828125 289.222656 170.988281 L 300.902344 182.667969 C 301.066406 182.828125 301.285156 182.917969 301.511719 182.917969 C 301.742188 182.917969 301.960938 182.828125 302.121094 182.667969 L 306.039062 178.75 C 306.375 178.410156 306.375 177.867188 306.039062 177.53125 "/></g><path style=" stroke:none;fill-rule:nonzero;fill:#ffffff;fill-opacity:1;" d="M 268.027344 145.222656 C 268.503906 145.222656 268.988281 145.054688 269.371094 144.707031 C 269.765625 144.347656 270 143.855469 270.027344 143.320312 C 270.050781 142.785156 269.867188 142.273438 269.507812 141.875 C 269.148438 141.480469 268.65625 141.246094 268.125 141.222656 C 267.589844 141.191406 267.078125 141.378906 266.679688 141.734375 C 265.863281 142.476562 265.800781 143.746094 266.539062 144.566406 C 266.933594 145.003906 267.480469 145.222656 268.027344 145.222656 "/><path style=" stroke:none;fill-rule:nonzero;fill:#ffffff;fill-opacity:1;" d="M 266.058594 148.054688 C 266.597656 147.269531 266.402344 146.199219 265.621094 145.65625 C 264.839844 145.113281 263.765625 145.308594 263.222656 146.09375 C 259.347656 151.691406 261.210938 159.53125 265.300781 163.066406 C 265.628906 163.347656 266.027344 163.488281 266.429688 163.488281 C 266.910156 163.488281 267.390625 163.285156 267.734375 162.890625 C 268.355469 162.171875 268.277344 161.082031 267.554688 160.460938 C 264.578125 157.886719 263.304688 152.035156 266.058594 148.054688 "/><path style=" stroke:none;fill-rule:nonzero;fill:#ffffff;fill-opacity:1;" d="M 274.300781 148.824219 C 274.316406 148.796875 274.332031 148.761719 274.339844 148.726562 C 274.351562 148.671875 274.359375 148.613281 274.359375 148.535156 C 274.359375 148.320312 274.25 148.136719 274.0625 148.023438 C 274.0625 148.023438 274.0625 148.023438 274.058594 148.023438 C 273.949219 147.960938 273.8125 147.917969 273.644531 147.894531 C 273.519531 147.875 273.367188 147.863281 273.195312 147.863281 C 273.039062 147.859375 272.871094 147.859375 272.6875 147.859375 C 272.324219 147.859375 272.054688 147.878906 271.867188 147.917969 C 271.457031 148.007812 271.3125 148.304688 271.3125 148.550781 C 271.3125 148.707031 271.367188 148.859375 271.472656 148.988281 C 271.59375 149.136719 271.78125 149.222656 271.992188 149.222656 L 272.167969 149.222656 C 272.164062 149.363281 272.160156 149.503906 272.160156 149.636719 C 272.160156 149.949219 272.167969 150.246094 272.179688 150.519531 C 272.1875 150.785156 272.195312 151.050781 272.195312 151.320312 C 272.195312 151.863281 272.167969 152.324219 272.113281 152.691406 C 272.058594 153.039062 271.984375 153.320312 271.886719 153.523438 C 271.800781 153.695312 271.710938 153.816406 271.609375 153.878906 C 271.433594 153.992188 271.195312 153.996094 270.871094 153.929688 C 270.777344 153.910156 270.6875 153.863281 270.597656 153.785156 C 270.503906 153.699219 270.417969 153.5625 270.34375 153.375 C 270.265625 153.175781 270.226562 152.882812 270.226562 152.5 C 270.226562 152.484375 270.222656 152.464844 270.222656 152.445312 C 270.191406 152.230469 270.117188 152.078125 269.996094 151.96875 C 269.914062 151.894531 269.765625 151.808594 269.53125 151.808594 C 269.222656 151.808594 268.910156 152.023438 268.910156 152.5 C 268.910156 153.066406 268.980469 153.519531 269.125 153.886719 C 269.273438 154.257812 269.46875 154.554688 269.710938 154.769531 C 269.953125 154.980469 270.222656 155.125 270.515625 155.199219 C 270.777344 155.265625 271.03125 155.296875 271.277344 155.296875 C 271.550781 155.296875 271.824219 155.238281 272.089844 155.121094 C 272.359375 155 272.601562 154.8125 272.8125 154.566406 C 273.011719 154.328125 273.175781 154.027344 273.304688 153.675781 C 273.429688 153.324219 273.5 152.910156 273.507812 152.449219 C 273.515625 152.316406 273.519531 152.1875 273.519531 152.0625 L 273.519531 151.019531 C 273.519531 150.886719 273.515625 150.761719 273.515625 150.636719 C 273.511719 150.519531 273.511719 150.398438 273.511719 150.28125 C 273.511719 150.046875 273.511719 149.808594 273.519531 149.570312 C 273.519531 149.449219 273.523438 149.324219 273.53125 149.195312 C 273.660156 149.195312 273.761719 149.1875 273.84375 149.171875 C 274.054688 149.140625 274.214844 149.015625 274.300781 148.824219 "/><path style=" stroke:none;fill-rule:nonzero;fill:#ffffff;fill-opacity:1;" d="M 276.523438 153.738281 C 276.289062 153.671875 276.070312 153.558594 275.867188 153.402344 C 275.671875 153.25 275.503906 153.039062 275.367188 152.777344 C 275.234375 152.523438 275.167969 152.191406 275.167969 151.789062 C 275.167969 151.339844 275.222656 150.949219 275.332031 150.621094 C 275.433594 150.304688 275.578125 150.042969 275.757812 149.835938 C 275.933594 149.632812 276.140625 149.480469 276.378906 149.378906 C 276.636719 149.269531 276.925781 149.222656 277.234375 149.222656 C 277.875 149.222656 278.390625 149.425781 278.8125 149.84375 C 279.246094 150.269531 279.488281 150.925781 279.523438 151.765625 C 279.511719 152.183594 279.433594 152.527344 279.296875 152.792969 C 279.160156 153.054688 278.988281 153.265625 278.78125 153.414062 C 278.570312 153.570312 278.328125 153.679688 278.0625 153.742188 C 277.570312 153.863281 277.113281 153.910156 276.523438 153.738281 Z M 280.628906 150.160156 C 280.441406 149.675781 280.175781 149.253906 279.84375 148.910156 C 279.507812 148.5625 279.105469 148.292969 278.648438 148.109375 C 277.738281 147.742188 276.617188 147.742188 275.773438 148.121094 C 275.351562 148.308594 274.984375 148.585938 274.683594 148.941406 C 274.386719 149.289062 274.15625 149.714844 274 150.199219 C 273.84375 150.671875 273.765625 151.207031 273.765625 151.789062 C 273.765625 152.375 273.867188 152.894531 274.074219 153.328125 C 274.277344 153.757812 274.546875 154.121094 274.878906 154.402344 C 275.207031 154.683594 275.578125 154.890625 275.984375 155.023438 C 276.382812 155.152344 276.78125 155.21875 277.171875 155.21875 C 277.621094 155.21875 278.0625 155.15625 278.488281 155.03125 C 278.925781 154.902344 279.324219 154.699219 279.667969 154.421875 C 280.015625 154.144531 280.304688 153.785156 280.527344 153.347656 C 280.746094 152.914062 280.871094 152.390625 280.894531 151.78125 C 280.90625 151.191406 280.816406 150.644531 280.628906 150.160156 "/><path style=" stroke:none;fill-rule:nonzero;fill:#ffffff;fill-opacity:1;" d="M 282.757812 152.503906 C 282.761719 152.386719 282.769531 152.269531 282.769531 152.152344 C 282.855469 152.1875 282.957031 152.203125 283.074219 152.203125 L 283.390625 152.203125 C 283.933594 152.214844 284.359375 152.304688 284.652344 152.480469 C 284.886719 152.617188 284.988281 152.816406 284.988281 153.121094 C 284.988281 153.273438 284.941406 153.347656 284.910156 153.386719 C 284.835938 153.476562 284.726562 153.546875 284.582031 153.605469 C 284.40625 153.679688 284.191406 153.726562 283.9375 153.757812 C 283.574219 153.800781 283.148438 153.816406 282.667969 153.800781 C 282.710938 153.367188 282.742188 152.929688 282.757812 152.503906 Z M 285.09375 150.066406 C 285.09375 150.183594 285.0625 150.273438 285.003906 150.351562 C 284.917969 150.460938 284.816406 150.546875 284.679688 150.621094 C 284.535156 150.703125 284.363281 150.765625 284.171875 150.804688 C 283.972656 150.851562 283.769531 150.871094 283.574219 150.871094 L 283.304688 150.871094 C 283.078125 150.871094 282.917969 150.886719 282.789062 150.921875 C 282.789062 150.886719 282.789062 150.847656 282.789062 150.8125 C 282.789062 150.488281 282.789062 150.164062 282.78125 149.84375 C 282.78125 149.621094 282.773438 149.398438 282.769531 149.175781 C 282.8125 149.167969 282.859375 149.15625 282.910156 149.148438 C 283.242188 149.082031 283.683594 149.089844 284.082031 149.171875 C 284.289062 149.21875 284.476562 149.285156 284.640625 149.375 C 284.785156 149.457031 284.898438 149.558594 284.984375 149.679688 C 285.058594 149.785156 285.09375 149.914062 285.09375 150.066406 Z M 286.269531 150.664062 C 286.351562 150.46875 286.394531 150.265625 286.394531 150.066406 C 286.394531 149.671875 286.304688 149.324219 286.136719 149.027344 C 285.96875 148.742188 285.746094 148.503906 285.46875 148.320312 C 285.46875 148.320312 285.46875 148.320312 285.464844 148.320312 C 285.203125 148.148438 284.898438 148.019531 284.558594 147.9375 C 284.230469 147.859375 283.886719 147.816406 283.535156 147.816406 C 282.878906 147.816406 282.246094 147.941406 281.648438 148.191406 C 281.636719 148.195312 281.625 148.199219 281.613281 148.207031 C 281.445312 148.273438 281.316406 148.359375 281.226562 148.460938 C 281.078125 148.632812 281.046875 148.796875 281.046875 148.910156 C 281.046875 149.089844 281.121094 149.257812 281.253906 149.382812 C 281.300781 149.425781 281.347656 149.464844 281.402344 149.492188 C 281.410156 149.65625 281.414062 149.816406 281.414062 149.972656 C 281.417969 150.226562 281.417969 150.507812 281.417969 150.8125 C 281.417969 151.347656 281.40625 151.898438 281.382812 152.445312 C 281.367188 152.878906 281.339844 153.3125 281.304688 153.738281 C 281.011719 153.839844 280.832031 154.078125 280.832031 154.382812 C 280.832031 154.546875 280.882812 154.695312 280.972656 154.8125 C 281.070312 154.9375 281.210938 155.023438 281.394531 155.066406 C 281.410156 155.070312 281.429688 155.070312 281.449219 155.074219 C 281.5625 155.1875 281.726562 155.25 281.914062 155.25 C 282.101562 155.25 282.246094 155.210938 282.359375 155.128906 C 282.375 155.117188 282.390625 155.101562 282.40625 155.089844 C 282.480469 155.09375 282.554688 155.097656 282.625 155.097656 C 282.789062 155.105469 282.953125 155.105469 283.128906 155.105469 C 283.601562 155.105469 284.007812 155.089844 284.335938 155.054688 C 284.707031 155.011719 284.960938 154.953125 285.132812 154.863281 C 285.304688 154.773438 285.460938 154.679688 285.59375 154.578125 C 285.742188 154.464844 285.871094 154.335938 285.976562 154.191406 C 286.082031 154.042969 286.164062 153.871094 286.21875 153.683594 C 286.269531 153.5 286.296875 153.289062 286.296875 153.058594 C 286.296875 152.859375 286.265625 152.664062 286.199219 152.472656 C 286.136719 152.289062 286.050781 152.117188 285.9375 151.957031 C 285.84375 151.816406 285.726562 151.6875 285.59375 151.570312 C 285.730469 151.457031 285.855469 151.328125 285.964844 151.1875 C 286.09375 151.023438 286.195312 150.847656 286.269531 150.664062 "/><g clip-rule="nonzero" clip-path="url(#e9c7f6397e)"><path style=" stroke:none;fill-rule:nonzero;fill:#ffffff;fill-opacity:1;" d="M 94.917969 48.089844 C 96.058594 47.234375 96.769531 46.046875 96.769531 44.730469 C 96.769531 42.128906 93.996094 40.019531 90.582031 40.019531 C 87.164062 40.019531 84.394531 42.128906 84.394531 44.730469 C 84.394531 47.332031 87.164062 49.441406 90.582031 49.441406 C 91.011719 49.441406 91.429688 49.410156 91.832031 49.347656 C 93.703125 50.828125 98.0625 50.773438 98.0625 50.773438 C 96.34375 50.132812 95.375 48.867188 94.917969 48.089844 Z M 88.421875 45.046875 C 88.421875 45.316406 88.199219 45.539062 87.929688 45.539062 C 87.660156 45.539062 87.4375 45.316406 87.4375 45.046875 L 87.4375 44.105469 C 87.4375 43.832031 87.660156 43.613281 87.929688 43.613281 C 88.199219 43.613281 88.421875 43.832031 88.421875 44.105469 Z M 91.070312 45.046875 C 91.070312 45.316406 90.851562 45.539062 90.578125 45.539062 C 90.308594 45.539062 90.089844 45.316406 90.089844 45.046875 L 90.089844 44.105469 C 90.089844 43.832031 90.308594 43.613281 90.578125 43.613281 C 90.851562 43.613281 91.070312 43.832031 91.070312 44.105469 Z M 93.71875 45.046875 C 93.71875 45.316406 93.5 45.539062 93.230469 45.539062 C 92.957031 45.539062 92.738281 45.316406 92.738281 45.046875 L 92.738281 44.105469 C 92.738281 43.832031 92.957031 43.613281 93.230469 43.613281 C 93.5 43.613281 93.71875 43.832031 93.71875 44.105469 Z M 93.71875 45.046875 "/></g><g clip-rule="nonzero" clip-path="url(#c67988806d)"><path style=" stroke:none;fill-rule:nonzero;fill:#ffffff;fill-opacity:1;" d="M 81.441406 85.722656 L 74.847656 85.722656 C 74.574219 85.722656 74.355469 85.941406 74.355469 86.210938 L 74.355469 94.476562 C 74.355469 94.75 74.574219 94.96875 74.847656 94.96875 L 81.441406 94.96875 C 81.710938 94.96875 81.933594 94.75 81.933594 94.476562 L 81.933594 86.210938 C 81.933594 85.941406 81.710938 85.722656 81.441406 85.722656 Z M 80.949219 93.988281 L 75.335938 93.988281 L 75.335938 86.703125 L 80.949219 86.703125 Z M 80.949219 93.988281 "/></g><g clip-rule="nonzero" clip-path="url(#d9ded413fa)"><path style=" stroke:none;fill-rule:nonzero;fill:#ffffff;fill-opacity:1;" d="M 93.632812 81.191406 L 87.039062 81.191406 C 86.765625 81.191406 86.546875 81.410156 86.546875 81.683594 L 86.546875 94.476562 C 86.546875 94.75 86.765625 94.96875 87.039062 94.96875 L 93.632812 94.96875 C 93.90625 94.96875 94.125 94.75 94.125 94.476562 L 94.125 81.683594 C 94.125 81.410156 93.90625 81.191406 93.632812 81.191406 Z M 93.144531 93.988281 L 87.527344 93.988281 L 87.527344 82.171875 L 93.144531 82.171875 Z M 93.144531 93.988281 "/></g><g clip-rule="nonzero" clip-path="url(#557d35114b)"><path style=" stroke:none;fill-rule:nonzero;fill:#ffffff;fill-opacity:1;" d="M 105.828125 73.25 L 99.230469 73.25 C 98.960938 73.25 98.742188 73.46875 98.742188 73.738281 L 98.742188 94.476562 C 98.742188 94.75 98.960938 94.96875 99.230469 94.96875 L 105.828125 94.96875 C 106.097656 94.96875 106.316406 94.75 106.316406 94.476562 L 106.316406 73.738281 C 106.316406 73.46875 106.097656 73.25 105.828125 73.25 Z M 105.335938 93.988281 L 99.722656 93.988281 L 99.722656 74.230469 L 105.335938 74.230469 Z M 105.335938 93.988281 "/></g><g clip-rule="nonzero" clip-path="url(#8db85e440a)"><path style=" stroke:none;fill-rule:nonzero;fill:#ffffff;fill-opacity:1;" d="M 118.019531 71.707031 L 111.425781 71.707031 C 111.152344 71.707031 110.933594 71.925781 110.933594 72.199219 L 110.933594 94.476562 C 110.933594 94.75 111.152344 94.96875 111.425781 94.96875 L 118.019531 94.96875 C 118.292969 94.96875 118.511719 94.75 118.511719 94.476562 L 118.511719 72.199219 C 118.511719 71.925781 118.292969 71.707031 118.019531 71.707031 Z M 117.53125 93.988281 L 111.914062 93.988281 L 111.914062 72.6875 L 117.53125 72.6875 Z M 117.53125 93.988281 "/></g><path style=" stroke:none;fill-rule:nonzero;fill:#ffffff;fill-opacity:1;" d="M 93.328125 59.164062 C 93.328125 59.527344 93.257812 59.875 93.121094 60.210938 C 92.980469 60.542969 92.785156 60.839844 92.527344 61.09375 C 92.273438 61.351562 91.976562 61.546875 91.644531 61.6875 C 91.308594 61.824219 90.960938 61.894531 90.597656 61.894531 C 90.238281 61.894531 89.890625 61.824219 89.554688 61.6875 C 89.222656 61.546875 88.925781 61.351562 88.671875 61.09375 C 88.414062 60.839844 88.21875 60.542969 88.078125 60.210938 C 87.941406 59.875 87.871094 59.527344 87.871094 59.164062 C 87.871094 58.804688 87.941406 58.457031 88.078125 58.121094 C 88.21875 57.789062 88.414062 57.492188 88.671875 57.238281 C 88.925781 56.980469 89.222656 56.785156 89.554688 56.644531 C 89.890625 56.507812 90.238281 56.4375 90.597656 56.4375 C 90.960938 56.4375 91.308594 56.507812 91.644531 56.644531 C 91.976562 56.785156 92.273438 56.980469 92.527344 57.238281 C 92.785156 57.492188 92.980469 57.789062 93.121094 58.121094 C 93.257812 58.457031 93.328125 58.804688 93.328125 59.164062 Z M 93.328125 59.164062 "/><path style=" stroke:none;fill-rule:nonzero;fill:#ffffff;fill-opacity:1;" d="M 98.515625 63.046875 C 98.101562 62.390625 97.234375 62.191406 96.574219 62.597656 L 91.53125 65.71875 L 88.753906 62.433594 C 88.726562 62.402344 88.695312 62.375 88.667969 62.347656 C 88.648438 62.328125 88.628906 62.308594 88.609375 62.292969 C 88.574219 62.261719 88.539062 62.230469 88.503906 62.203125 C 88.359375 62.089844 88.207031 61.984375 88.027344 61.910156 C 87.066406 61.523438 85.96875 61.96875 85.570312 62.917969 L 81.914062 71.585938 C 81.882812 71.660156 79.148438 79.339844 79.148438 79.339844 L 76.378906 83.292969 C 75.785156 84.140625 76 85.300781 76.855469 85.886719 C 77.183594 86.109375 77.550781 86.210938 77.929688 86.210938 C 78.519531 86.210938 79.101562 85.933594 79.46875 85.414062 L 82.390625 81.234375 C 82.496094 81.085938 82.578125 80.925781 82.636719 80.757812 C 82.636719 80.757812 84.664062 75.375 85.027344 74.367188 L 88.15625 74.8125 L 88.550781 79.964844 C 88.625 80.941406 89.449219 81.683594 90.421875 81.683594 C 90.472656 81.683594 90.519531 81.679688 90.566406 81.675781 C 91.601562 81.601562 92.378906 80.707031 92.300781 79.683594 L 91.789062 73.042969 C 91.722656 72.175781 91.054688 71.46875 90.183594 71.347656 L 86.3125 70.796875 L 88.261719 66.191406 L 90.152344 68.433594 C 90.429688 68.761719 90.832031 68.933594 91.238281 68.933594 C 91.492188 68.933594 91.75 68.867188 91.980469 68.726562 L 98.0625 64.964844 C 98.722656 64.558594 98.925781 63.699219 98.515625 63.046875 Z M 98.515625 63.046875 "/><path style=" stroke:none;fill-rule:nonzero;fill:#ffffff;fill-opacity:1;" d="M 102.582031 52.066406 C 104.089844 52.066406 105.3125 50.847656 105.3125 49.339844 C 105.3125 47.832031 104.089844 46.613281 102.582031 46.613281 C 101.078125 46.613281 99.855469 47.832031 99.855469 49.339844 C 99.855469 50.847656 101.078125 52.066406 102.582031 52.066406 Z M 102.582031 52.066406 "/><path style=" stroke:none;fill-rule:nonzero;fill:#ffffff;fill-opacity:1;" d="M 115.507812 69.726562 L 113.535156 63.996094 L 113.222656 59 C 113.222656 59.003906 113.175781 58.507812 112.957031 58.191406 L 108.785156 51.496094 C 108.242188 50.625 107.085938 50.351562 106.199219 50.890625 C 106.054688 50.980469 105.640625 51.316406 105.484375 51.675781 L 102.46875 58.570312 L 98.910156 61.328125 C 98.300781 61.800781 98.191406 62.675781 98.671875 63.28125 C 98.949219 63.632812 99.363281 63.816406 99.78125 63.816406 C 100.085938 63.816406 100.394531 63.71875 100.652344 63.519531 L 104.488281 60.546875 C 104.671875 60.402344 104.820312 60.214844 104.914062 60 L 106.875 55.515625 L 108.921875 58.804688 L 103.734375 63.300781 C 103.4375 63.558594 103.230469 63.902344 103.140625 64.285156 L 101.476562 71.46875 C 101.246094 72.46875 101.878906 73.464844 102.890625 73.691406 C 103.03125 73.726562 103.171875 73.738281 103.3125 73.738281 C 104.167969 73.738281 104.941406 73.15625 105.140625 72.296875 L 106.671875 65.699219 L 109.707031 63.066406 L 109.792969 64.472656 C 109.804688 64.636719 109.839844 64.804688 109.886719 64.964844 L 111.953125 70.933594 C 112.21875 71.707031 112.949219 72.1875 113.730469 72.1875 C 113.929688 72.1875 114.136719 72.160156 114.339844 72.085938 C 115.320312 71.761719 115.84375 70.703125 115.507812 69.726562 Z M 115.507812 69.726562 "/><g clip-rule="nonzero" clip-path="url(#1afbddbf16)"><path style=" stroke:none;fill-rule:evenodd;fill:#ffffff;fill-opacity:1;" d="M 196.277344 154.664062 C 195.472656 154.664062 194.675781 154.5625 193.902344 154.363281 C 192.949219 152.0625 190.785156 150.378906 188.210938 150.117188 C 187.320312 148.648438 186.851562 146.96875 186.851562 145.238281 C 186.851562 139.316406 182.03125 134.496094 176.109375 134.496094 C 170.1875 134.496094 165.367188 139.316406 165.367188 145.238281 C 165.367188 150.554688 169.253906 154.984375 174.335938 155.832031 L 172.488281 157.21875 C 172.195312 157.433594 172.136719 157.847656 172.355469 158.136719 C 172.484375 158.308594 172.683594 158.402344 172.882812 158.402344 C 173.019531 158.402344 173.15625 158.359375 173.273438 158.269531 L 176.503906 155.847656 C 176.644531 155.742188 176.734375 155.589844 176.757812 155.414062 C 176.785156 155.242188 176.738281 155.066406 176.632812 154.929688 L 174.214844 151.699219 C 173.996094 151.410156 173.582031 151.347656 173.292969 151.566406 C 173.003906 151.785156 172.945312 152.195312 173.164062 152.488281 L 174.71875 154.5625 C 170.175781 153.886719 166.683594 149.964844 166.683594 145.238281 C 166.683594 140.039062 170.910156 135.8125 176.109375 135.8125 C 181.308594 135.8125 185.535156 140.039062 185.535156 145.238281 C 185.535156 146.953125 185.941406 148.621094 186.710938 150.128906 C 183.261719 150.523438 180.574219 153.457031 180.574219 157.011719 C 180.574219 160.828125 183.683594 163.9375 187.503906 163.9375 C 191.324219 163.9375 194.429688 160.832031 194.429688 157.011719 C 194.429688 156.597656 194.390625 156.195312 194.324219 155.800781 C 194.964844 155.917969 195.617188 155.980469 196.277344 155.980469 C 202.199219 155.980469 207.019531 151.160156 207.019531 145.238281 C 207.019531 139.898438 203.101562 135.457031 197.984375 134.632812 L 199.84375 133.15625 C 200.128906 132.929688 200.175781 132.515625 199.949219 132.234375 C 199.722656 131.949219 199.308594 131.902344 199.023438 132.128906 L 195.867188 134.640625 C 195.730469 134.75 195.644531 134.90625 195.625 135.082031 C 195.605469 135.253906 195.652344 135.425781 195.761719 135.5625 L 198.273438 138.722656 C 198.40625 138.882812 198.597656 138.96875 198.789062 138.96875 C 198.933594 138.96875 199.078125 138.921875 199.199219 138.828125 C 199.484375 138.601562 199.53125 138.1875 199.304688 137.90625 L 197.726562 135.925781 C 202.238281 136.625 205.703125 140.535156 205.703125 145.238281 C 205.703125 150.4375 201.476562 154.664062 196.277344 154.664062 Z M 173.796875 144.210938 L 173.796875 146.34375 C 173.796875 147.566406 172.800781 148.558594 171.578125 148.558594 L 170.019531 148.558594 C 169.65625 148.558594 169.359375 148.265625 169.359375 147.902344 L 169.359375 142.648438 C 169.359375 142.289062 169.65625 141.992188 170.019531 141.992188 L 171.578125 141.992188 C 172.800781 141.992188 173.796875 142.988281 173.796875 144.210938 Z M 170.675781 143.304688 L 171.578125 143.304688 C 172.078125 143.304688 172.484375 143.710938 172.484375 144.210938 L 172.484375 146.34375 C 172.484375 146.839844 172.078125 147.246094 171.578125 147.246094 L 170.675781 147.246094 Z M 175.699219 143.304688 L 175.699219 144.617188 L 177.136719 144.617188 C 177.5 144.617188 177.792969 144.914062 177.792969 145.277344 C 177.792969 145.640625 177.5 145.933594 177.136719 145.933594 L 175.699219 145.933594 L 175.699219 147.246094 L 177.136719 147.246094 C 177.5 147.246094 177.792969 147.539062 177.792969 147.902344 C 177.792969 148.265625 177.5 148.558594 177.136719 148.558594 L 175.042969 148.558594 C 174.679688 148.558594 174.386719 148.265625 174.386719 147.902344 L 174.386719 142.648438 C 174.386719 142.285156 174.679688 141.992188 175.042969 141.992188 L 177.136719 141.992188 C 177.5 141.992188 177.792969 142.285156 177.792969 142.648438 C 177.792969 143.011719 177.5 143.304688 177.136719 143.304688 Z M 181.175781 148.089844 C 181.089844 148.367188 180.835938 148.558594 180.542969 148.558594 C 180.253906 148.558594 179.996094 148.367188 179.914062 148.089844 L 178.355469 142.835938 C 178.25 142.488281 178.449219 142.121094 178.796875 142.019531 C 179.144531 141.917969 179.511719 142.113281 179.613281 142.460938 L 180.542969 145.59375 L 181.476562 142.460938 C 181.578125 142.113281 181.945312 141.917969 182.292969 142.019531 C 182.640625 142.121094 182.839844 142.488281 182.734375 142.835938 Z M 201.617188 141.992188 L 202.359375 141.992188 C 203.445312 141.992188 204.332031 142.875 204.332031 143.960938 C 204.332031 144.324219 204.035156 144.617188 203.671875 144.617188 C 203.308594 144.617188 203.015625 144.324219 203.015625 143.960938 C 203.015625 143.601562 202.722656 143.304688 202.359375 143.304688 L 201.617188 143.304688 C 201.253906 143.304688 200.960938 143.597656 200.960938 143.960938 C 200.960938 144.324219 201.253906 144.617188 201.617188 144.617188 L 202.359375 144.617188 C 203.445312 144.617188 204.332031 145.5 204.332031 146.589844 C 204.332031 147.675781 203.445312 148.558594 202.359375 148.558594 L 201.617188 148.558594 C 200.53125 148.558594 199.648438 147.675781 199.648438 146.589844 C 199.648438 146.226562 199.941406 145.929688 200.304688 145.929688 C 200.667969 145.929688 200.960938 146.226562 200.960938 146.589844 C 200.960938 146.949219 201.253906 147.246094 201.617188 147.246094 L 202.359375 147.246094 C 202.722656 147.246094 203.015625 146.949219 203.015625 146.589844 C 203.015625 146.226562 202.722656 145.933594 202.359375 145.933594 L 201.617188 145.933594 C 200.53125 145.933594 199.648438 145.050781 199.648438 143.960938 C 199.648438 142.875 200.53125 141.992188 201.617188 141.992188 Z M 194.867188 142.648438 C 194.867188 142.285156 195.164062 141.992188 195.527344 141.992188 L 197.335938 141.992188 C 198.421875 141.992188 199.304688 142.875 199.304688 143.960938 C 199.304688 145.046875 198.421875 145.933594 197.335938 145.933594 L 196.183594 145.933594 L 196.183594 147.902344 C 196.183594 148.265625 195.886719 148.558594 195.527344 148.558594 C 195.164062 148.558594 194.867188 148.265625 194.867188 147.902344 Z M 196.183594 144.617188 L 196.183594 143.304688 L 197.335938 143.304688 C 197.695312 143.304688 197.992188 143.601562 197.992188 143.960938 C 197.992188 144.324219 197.695312 144.617188 197.335938 144.617188 Z M 191.546875 143.304688 C 192.433594 143.304688 193.15625 144.027344 193.15625 144.914062 L 193.15625 145.636719 C 193.15625 146.523438 192.433594 147.246094 191.546875 147.246094 C 190.660156 147.246094 189.9375 146.523438 189.9375 145.636719 L 189.9375 144.914062 C 189.9375 144.027344 190.660156 143.304688 191.546875 143.304688 Z M 191.546875 148.558594 C 189.9375 148.558594 188.625 147.25 188.625 145.636719 L 188.625 144.914062 C 188.625 143.304688 189.9375 141.992188 191.546875 141.992188 C 193.160156 141.992188 194.46875 143.300781 194.46875 144.914062 L 194.46875 145.636719 C 194.46875 147.25 193.160156 148.558594 191.546875 148.558594 Z M 199.066406 173.734375 C 200.292969 175.765625 200.996094 178.140625 200.996094 180.679688 L 200.996094 181.34375 C 200.996094 182.136719 200.726562 182.867188 200.269531 183.445312 L 210.167969 183.445312 C 210.917969 183.445312 211.527344 182.835938 211.527344 182.085938 L 211.527344 181.605469 C 211.527344 176.796875 207.617188 172.882812 202.808594 172.882812 C 201.511719 172.882812 200.230469 173.175781 199.066406 173.734375 Z M 187.503906 168.5 C 194.21875 168.5 199.683594 173.964844 199.683594 180.679688 L 199.683594 181.34375 C 199.683594 182.503906 198.738281 183.445312 197.578125 183.445312 L 177.425781 183.445312 C 176.265625 183.445312 175.320312 182.503906 175.320312 181.34375 L 175.320312 180.679688 C 175.320312 173.964844 180.785156 168.5 187.503906 168.5 Z M 172.199219 172.882812 C 167.390625 172.882812 163.476562 176.796875 163.476562 181.605469 L 163.476562 182.085938 C 163.476562 182.835938 164.089844 183.445312 164.839844 183.445312 L 174.734375 183.445312 C 174.28125 182.867188 174.007812 182.136719 174.007812 181.34375 L 174.007812 180.679688 C 174.007812 178.140625 174.714844 175.765625 175.9375 173.734375 C 174.773438 173.175781 173.496094 172.882812 172.199219 172.882812 Z M 177.433594 164.3125 C 177.433594 167.199219 175.085938 169.550781 172.199219 169.550781 C 169.308594 169.550781 166.960938 167.199219 166.960938 164.3125 C 166.960938 161.425781 169.308594 159.074219 172.199219 159.074219 C 175.085938 159.074219 177.433594 161.425781 177.433594 164.3125 Z M 202.808594 159.074219 C 205.695312 159.074219 208.046875 161.425781 208.046875 164.3125 C 208.046875 167.199219 205.695312 169.550781 202.808594 169.550781 C 199.921875 169.550781 197.570312 167.199219 197.570312 164.3125 C 197.570312 161.425781 199.921875 159.074219 202.808594 159.074219 Z M 202.808594 159.074219 "/></g><g clip-rule="nonzero" clip-path="url(#5708503145)"><path style=" stroke:none;fill-rule:nonzero;fill:#ffffff;fill-opacity:1;" d="M 288.742188 90.191406 C 288.742188 91.234375 287.894531 92.085938 286.847656 92.085938 L 270.265625 92.085938 C 269.222656 92.085938 268.371094 91.234375 268.371094 90.191406 L 268.371094 82.179688 C 268.371094 81.132812 269.222656 80.285156 270.265625 80.285156 L 286.847656 80.285156 C 287.894531 80.285156 288.742188 81.132812 288.742188 82.179688 Z M 288.742188 90.191406 "/></g><path style=" stroke:none;fill-rule:nonzero;fill:#ffffff;fill-opacity:1;" d="M 282.679688 68.5 C 282.726562 68.210938 282.75 67.929688 282.75 67.664062 C 282.75 65.21875 280.871094 63.230469 278.554688 63.230469 C 276.246094 63.230469 274.363281 65.21875 274.363281 67.664062 C 274.363281 67.929688 274.390625 68.210938 274.433594 68.5 C 274.160156 68.828125 274.097656 69.390625 274.3125 69.929688 C 274.496094 70.390625 274.839844 70.707031 275.1875 70.804688 C 275.929688 72.269531 277.125 73.472656 278.554688 73.472656 C 279.988281 73.472656 281.183594 72.269531 281.925781 70.804688 C 282.277344 70.707031 282.617188 70.390625 282.800781 69.929688 C 283.015625 69.390625 282.953125 68.828125 282.679688 68.5 Z M 282.679688 68.5 "/><g clip-rule="nonzero" clip-path="url(#38f817e6c2)"><path style=" stroke:none;fill-rule:nonzero;fill:#ffffff;fill-opacity:1;" d="M 275.621094 47.597656 C 275.746094 47.914062 275.984375 48.136719 276.226562 48.203125 C 276.738281 49.214844 277.5625 50.046875 278.554688 50.046875 C 279.546875 50.046875 280.371094 49.214844 280.886719 48.203125 C 281.128906 48.136719 281.367188 47.914062 281.492188 47.597656 C 281.640625 47.222656 281.59375 46.835938 281.410156 46.605469 C 281.441406 46.410156 281.457031 46.214844 281.457031 46.027344 C 281.457031 44.339844 280.15625 42.960938 278.554688 42.960938 C 276.957031 42.960938 275.652344 44.339844 275.652344 46.03125 C 275.652344 46.214844 275.671875 46.410156 275.703125 46.609375 C 275.519531 46.835938 275.476562 47.222656 275.621094 47.597656 Z M 275.621094 47.597656 "/></g><g clip-rule="nonzero" clip-path="url(#7471757693)"><path style=" stroke:none;fill-rule:nonzero;fill:#ffffff;fill-opacity:1;" d="M 262.414062 47.597656 C 262.542969 47.914062 262.773438 48.136719 263.015625 48.203125 C 263.527344 49.214844 264.355469 50.046875 265.347656 50.046875 C 266.335938 50.046875 267.164062 49.214844 267.679688 48.203125 C 267.921875 48.136719 268.15625 47.914062 268.285156 47.597656 C 268.433594 47.222656 268.386719 46.835938 268.203125 46.605469 C 268.234375 46.410156 268.246094 46.214844 268.246094 46.027344 C 268.246094 44.339844 266.945312 42.960938 265.347656 42.960938 C 263.746094 42.960938 262.445312 44.339844 262.445312 46.03125 C 262.445312 46.214844 262.464844 46.410156 262.496094 46.609375 C 262.308594 46.835938 262.265625 47.222656 262.414062 47.597656 Z M 262.414062 47.597656 "/></g><g clip-rule="nonzero" clip-path="url(#a9108da39d)"><path style=" stroke:none;fill-rule:nonzero;fill:#ffffff;fill-opacity:1;" d="M 288.832031 47.597656 C 288.957031 47.914062 289.191406 48.136719 289.433594 48.203125 C 289.949219 49.214844 290.773438 50.046875 291.765625 50.046875 C 292.757812 50.046875 293.582031 49.214844 294.097656 48.203125 C 294.339844 48.136719 294.574219 47.914062 294.703125 47.597656 C 294.847656 47.222656 294.804688 46.835938 294.621094 46.605469 C 294.652344 46.410156 294.664062 46.214844 294.664062 46.027344 C 294.664062 44.339844 293.363281 42.960938 291.765625 42.960938 C 290.167969 42.960938 288.863281 44.339844 288.863281 46.03125 C 288.863281 46.214844 288.882812 46.410156 288.914062 46.609375 C 288.726562 46.835938 288.683594 47.222656 288.832031 47.597656 Z M 288.832031 47.597656 "/></g><g clip-rule="nonzero" clip-path="url(#61c53b684e)"><path style=" stroke:none;fill-rule:nonzero;fill:#ffffff;fill-opacity:1;" d="M 300.726562 58.128906 L 297.597656 58.128906 C 297.523438 54.492188 296.976562 52.503906 296.976562 52.503906 C 296.792969 51.375 293.582031 50.5 293.582031 50.5 L 292.511719 53.773438 C 292.394531 52.796875 292.289062 51.949219 292.277344 51.816406 C 292.964844 51.652344 292.953125 51.148438 292.871094 50.886719 C 292.773438 50.570312 292.234375 50.480469 291.765625 50.5 C 291.296875 50.480469 290.765625 50.570312 290.664062 50.886719 C 290.578125 51.148438 290.566406 51.652344 291.253906 51.816406 C 291.234375 51.949219 291.136719 52.796875 291.023438 53.773438 L 289.953125 50.5 C 289.953125 50.5 286.742188 51.375 286.554688 52.503906 C 286.554688 52.503906 286.007812 54.492188 285.933594 58.128906 L 284.394531 58.128906 C 284.316406 54.492188 283.773438 52.503906 283.773438 52.503906 C 283.585938 51.375 280.375 50.5 280.375 50.5 L 279.304688 53.773438 C 279.191406 52.796875 279.085938 51.949219 279.070312 51.816406 C 279.757812 51.652344 279.746094 51.148438 279.664062 50.886719 C 279.558594 50.570312 279.027344 50.480469 278.554688 50.5 C 278.089844 50.480469 277.554688 50.570312 277.453125 50.886719 C 277.371094 51.148438 277.359375 51.652344 278.042969 51.816406 C 278.027344 51.949219 277.929688 52.796875 277.8125 53.773438 L 276.738281 50.5 C 276.738281 50.5 273.53125 51.375 273.34375 52.503906 C 273.34375 52.503906 272.796875 54.492188 272.722656 58.128906 L 271.179688 58.128906 C 271.109375 54.492188 270.558594 52.503906 270.558594 52.503906 C 270.375 51.375 267.164062 50.5 267.164062 50.5 L 266.09375 53.773438 C 265.976562 52.796875 265.875 51.949219 265.863281 51.816406 C 266.546875 51.652344 266.535156 51.148438 266.453125 50.886719 C 266.351562 50.570312 265.816406 50.480469 265.347656 50.5 C 264.878906 50.480469 264.347656 50.570312 264.246094 50.886719 C 264.160156 51.148438 264.148438 51.652344 264.835938 51.816406 C 264.820312 51.953125 264.71875 52.796875 264.601562 53.777344 L 263.53125 50.5 C 263.53125 50.5 260.324219 51.375 260.136719 52.507812 C 260.136719 52.507812 259.589844 54.496094 259.515625 58.128906 L 256.386719 58.128906 C 254.910156 58.128906 253.710938 59.324219 253.710938 60.800781 L 253.710938 73.9375 C 253.710938 75.410156 254.910156 76.609375 256.386719 76.609375 L 269.761719 76.609375 C 269.992188 76.175781 270.457031 75.632812 271.351562 75.050781 L 256.386719 75.050781 C 255.773438 75.050781 255.273438 74.550781 255.273438 73.9375 L 255.273438 60.800781 C 255.273438 60.183594 255.773438 59.6875 256.386719 59.6875 L 300.726562 59.6875 C 301.339844 59.6875 301.84375 60.183594 301.84375 60.800781 L 301.84375 73.9375 C 301.84375 74.550781 301.34375 75.050781 300.726562 75.050781 L 285.765625 75.050781 C 286.65625 75.632812 287.121094 76.175781 287.355469 76.609375 L 300.726562 76.609375 C 302.199219 76.609375 303.398438 75.414062 303.398438 73.9375 L 303.398438 60.800781 C 303.398438 59.324219 302.199219 58.128906 300.726562 58.128906 Z M 300.726562 58.128906 "/></g><path style=" stroke:none;fill-rule:nonzero;fill:#ffffff;fill-opacity:1;" d="M 286.460938 79.496094 C 286.265625 78.304688 286.09375 77.683594 286.09375 77.683594 C 285.886719 76.4375 283.15625 75.410156 281.863281 74.988281 C 281.660156 74.488281 281.171875 74.132812 280.597656 74.132812 L 276.515625 74.132812 C 275.941406 74.132812 275.457031 74.488281 275.253906 74.988281 C 273.960938 75.410156 271.226562 76.441406 271.023438 77.683594 C 271.023438 77.683594 270.847656 78.304688 270.65625 79.496094 Z M 286.460938 79.496094 "/></g></svg>